<svg id="Layer_1" xmlns="http://www.w3.org/2000/svg" viewBox="-64 66.9 129.1 129.1">
  <style>
    .st0{fill:#D41773;}
  </style>
  <path class="st0" d="M-19.9 149.3h43.4v-20.9h-43.4z"/>
  <path class="st0" d="M49.6 131.4l15.5-10.2-17.9-4.9 11.6-14.5-18.6.9 6.6-17.4-17.4 6.6.9-18.6-14.6 11.5-4.9-17.9L.6 82.4-9.7 66.9l-4.9 17.9-14.5-11.6.9 18.6-17.4-6.6 6.6 17.4-18.6-.9 11.6 14.5-17.9 4.9 15.5 10.2-15.6 10.4 17.9 4.9-11.6 14.5 18.6-.9-6.6 17.4 17.4-6.6-.9 18.6 14.5-11.6 4.9 17.9L.4 180.4 10.8 196l4.9-17.9 14.5 11.6-.9-18.6 17.4 6.6-6.6-17.4 18.6.9-11.6-14.5 17.9-4.9-15.4-10.4zM10 109.6c0-1.6 1.3-2.9 2.9-2.9 1.6 0 2.9 1.3 2.9 2.9v7.3c0 1.6-1.3 2.9-2.9 2.9-1.6 0-2.9-1.3-2.9-2.9v-7.3zm-11.8 1.3h7.2c1.3 0 2.3 1 2.3 2.3 0 1.3-1 2.3-2.3 2.3h-7.2c-1.3 0-2.3-1-2.3-2.3s1-2.3 2.3-2.3zm-10.4-1.3c0-1.6 1.3-2.9 2.9-2.9 1.6 0 2.9 1.3 2.9 2.9v7.3c0 1.6-1.3 2.9-2.9 2.9-1.6 0-2.9-1.3-2.9-2.9v-7.3zm40.4 42c0 1.3-1 2.3-2.3 2.3h-48.1c-1.3 0-2.3-1-2.3-2.3v-38.4c0-1.3 1-2.3 2.3-2.3h5.3c1.3 0 2.3 1 2.3 2.3 0 1.3-1 2.3-2.3 2.3h-3v9.4h43.4v-9.4h-3c-1.3 0-2.3-1-2.3-2.3s1-2.3 2.3-2.3h5.3c1.3 0 2.3 1 2.3 2.3v38.4z"/>
</svg>
