<svg xmlns="http://www.w3.org/2000/svg" viewBox="0 0 129.126 129.126">
  <path d="M113.59 64.563l15.536-10.226-17.937-4.924 11.616-14.527-18.58.86 6.56-17.405-17.407 6.56.86-18.58-14.527 11.617L74.79 0 64.562 15.537 54.337 0l-4.924 17.937L34.887 6.32l.86 18.58-17.405-6.56L24.9 35.747l-18.58-.86 11.617 14.527L0 54.337l15.537 10.226L0 74.79l17.937 4.923L6.32 94.24l18.58-.86-6.56 17.404 17.406-6.56-.86 18.58 14.526-11.616 4.924 17.937 10.226-15.537 10.226 15.537 4.924-17.937 14.527 11.617-.86-18.58 17.404 6.56-6.56-17.406 18.58.86-11.616-14.527 17.937-4.924-15.536-10.227zm-34.62-7.34l-2.085 4.712H56.568c-.052.413-.077.824-.077 1.236v2.01c0 .258.026.515.078.772h19.235l-2.01 4.712h-16.84c1.7 11.073 6.592 16.61 14.678 16.61 2.474 0 4.662-.49 6.567-1.47 1.39-.72 3.168-2.085 5.33-4.094v8.11c-3.45 2.215-7.416 3.323-11.896 3.323-12.617 0-20.006-7.494-22.17-22.48h-5.947l2.085-4.712h3.554c-.052-.256-.077-.513-.077-.77v-.773-1.313c0-.412.025-.798.077-1.16h-5.64l2.01-4.71h4.17c1.236-6.335 3.58-11.33 7.03-14.987 3.863-4.17 8.832-6.257 14.91-6.257 4.686 0 9.347 1.623 13.98 4.867L82.06 47.26c-3.605-3.555-7.288-5.332-11.047-5.332-3.863 0-7.057 1.65-9.58 4.944-2.008 2.626-3.45 6.077-4.326 10.35H78.97z" fill="#D41773"/>
</svg>
