<svg xmlns="http://www.w3.org/2000/svg" xmlns:xlink="http://www.w3.org/1999/xlink" viewBox="0 0 50 50"><defs><path id="a" d="M6.1 7.1h37.3v37.3H6.1z"/></defs><clipPath id="b"><use xlink:href="#a" overflow="visible"/></clipPath><path clip-path="url(#b)" fill-rule="evenodd" clip-rule="evenodd" fill="#AEAEAF" d="M39 22.8h-3.2c.2.9.4 1.9.4 2.9 0 6.3-5.1 11.5-11.5 11.5-6.3 0-11.5-5.1-11.5-11.5 0-1 .1-1.9.4-2.9h-3.2v15.7c0 .8.6 1.4 1.4 1.4h25.8c.8 0 1.4-.6 1.4-1.4V22.8zm0-10c0-.8-.6-1.4-1.4-1.4h-4.3c-.8 0-1.4.6-1.4 1.4v4.3c0 .8.6 1.4 1.4 1.4h4.3c.8 0 1.4-.6 1.4-1.4v-4.3zm-14.3 5.7c-4 0-7.2 3.2-7.2 7.2s3.2 7.2 7.2 7.2 7.2-3.2 7.2-7.2c-.1-4-3.3-7.2-7.2-7.2M39 44.3H10.3C7.9 44.3 6 42.4 6 40V11.3c.1-2.3 2-4.2 4.3-4.2H39c2.4 0 4.3 1.9 4.3 4.3V40c0 2.3-2 4.3-4.3 4.3"/></svg>