<svg id="Layer_1" xmlns="http://www.w3.org/2000/svg" viewBox="0 0 260 260">
  <style>
    .st0{fill:#FFFFFF;}
  </style>
  <g id="XMLID_178_">
    <path id="XMLID_179_" class="st0" d="M142.4 81.9z"/>
    <path id="XMLID_180_" class="st0" d="M190.1 22z"/>
    <path id="XMLID_181_" class="st0" d="M225.9 14.2c-.5-.5-1.1-.7-1.5-.4-.9.6-2 .8-2.8 1.6-1.2 1.1-2.3 2.4-3.3 3.6-.5.6-1.3.8-1.6 1.7-.6 1.6-1.3 3.2-2 4.8-.1.3-.2.6-.5.9-1.1.9-1.5 2.3-1.9 3.5-1.3 3.5-2 7.2-3.4 10.8-.2.5-.6.8-.8 1.3l-4.3 12.4c-.2.5-.2.6 0 .6 1-.2.1.7.5.9-.7.8-.7 1.8-1.1 2.7-1.5 3.4-2.9 6.9-4.6 10.2.5 0 .6-.3.7-.5 1.2-2.2 2.8-4.1 3.9-6.3.6-1.2 1.7-2.2 1.6-3.8 0-.5.4-.9 1-1 .5-.1 1-.5 1.1-1 .1-.9.9-1.4 1.5-1.6 1.2-.4 1.4-1.4 1.7-2.3.1-.2.4-.4.3-.7.1-.6-.3-1.2.2-1.9s1.4-.6 2-1.2c.3-.3.4-.3.1-.7-.5-.6-.5-1.3.5-1.5.2-.1.7-.2.6-.4-.5-1.4 1.6-2.2.8-3.6 0-.1.1-.3.2-.4.5-.5.8-1 1-1.7.2-.6.2-1.6.3-1.7 1.2-.8.2-2.5 1.5-3.2l-.2-.2c-.3-.3-.5-.7-.4-1.1.2-.5.8-.5 1-1 .5-1.1.8-2.3 1.1-3.5.6-2.2 1.6-4.1 2.4-6.2.2-.5.5-.9 1-.8.6.1 1.1-.3 1.8-.3.6 0 1.1-.5 1.1-.9 0-1.3.7-2.4 1.3-3.4.6-1.7.3-2.6-.8-3.7z"/>
    <path id="XMLID_185_" class="st0" d="M100.9 110.5c-1.1.7-2.1 1.6-2.6 2.8v.1c.5.1.9-.2 1.3-.4.5-.5.8-1.2 1.4-1.7.3-.2.5-.6-.1-.8z"/>
    <path id="XMLID_189_" class="st0" d="M125.7 86.6c.4-.1.7-.3.8-.8-.5 0-.7.3-.9.6-1.1.7-2.1 1.5-2.9 2.5-.3.1-.5.4-.7.7-.4.2-.7.4-.8 1 .5-.2.7-.6 1-.9.1-.4.7-.3.7-.7.9-.7 2-1.4 2.8-2.4z"/>
    <path id="XMLID_202_" class="st0" d="M42.9 126.8c.3.1.4-.2.5-.4.9-2.2 2-4.3 2.7-6.5.1-.5.3-1 .6-1.5.7-1 .9-2.1 1.5-3.1l.2-.3v-.1c1.2-2.5 2.6-4.9 3.8-7.4.8-1.7 2.1-3.2 2.6-5.1 0-.5.2-.9.5-1.2.1-.4.5-.5.7-.8.1-.4.2-.9.5-1.2.1-.4.5-.5.7-.8l2.7-4.5h-.2c.1-.3.4-.5.7-.8 1.6-1.7 2.7-3.7 4.2-5.4.4-.5.7-1 1.1-1.5 0 0 0-.1.1-.1v.1c.2-.1.4-.2.5-.3l.2-.2c0-.1 0-.1-.1-.2h-.1c.4-.4.6-.9 1-1.3 0-.1 0-.1.1-.1v.1l.6-.3.1-.5c-.1 0-.1 0-.2.1l.1-.1.1-.1v.1c.3 0 .5 0 .6-.3.1-.2.2-.3.3-.5l.5-.5c0-.1 0-.1-.1-.2-.1 0-.1 0-.2.1.3-.4.7-.8 1-1.3 0-.1 0-.1.1-.2v.1c.3-.2.7-.3.7-.8h-.1c.2-.2.5-.4.6-.7 0-.1.1-.1.1-.2v.1c.3-.2.7-.3.7-.8-.1 0-.1.1-.2.1l.1-.1c0-.1.1-.1.1-.1v.2c.3-.1.6-.3.7-.7.1 0 .1-.1.2-.1.1-.1.1-.2.2-.3v.2l.5-.1.5-.7c.2-.2.6-.4.7-.8l.3-.2.1-.5.9-.9c.1-.1.1-.2.2-.3v.2l.5-.1.5-.7h.1l.3-.2c0-.2.1-.3.1-.5.6-.6 1.4-1.2 2-1.8l.3-.3v.2l.4-.1.1-.1.1-.5c1-1 2.1-1.7 3.2-2.6 2.1-1.7 4.4-3.1 6.5-4.7 1-.7 2.3-1.1 3-2.2 2-1 3.7-2.6 5.7-3.6 1.8-.9 3.5-1.8 5.2-2.7.2-.5.7-.6 1.1-.8.9-.4 1.9-.6 2.7-1.2 2-1.4 4.3-2.1 6.3-3.3 1.8-1 3.8-1.5 5.7-2.3.7-.3 1.5-.4 2.2-1 1.6-.7 3.2-1.4 4.9-1.9 2.5-.6 4.7-1.8 7.1-2.7.4-.1.8-.4 1.2-.4 2.5 0 4.7-1.4 7.1-2 3-.7 6.1-1.4 8.9-2.8h.2c.6.2 1.1-.3 1.7-.3.4 0 .7-.4 1.1-.3l1.3-.4c.5 0 .9-.4 1.3-.3.4-.2.9-.3 1.3-.5.4 0 .7-.4 1.1-.3l1.5-.5c.4 0 .7-.4 1.1-.3l1.3-.5c.4 0 .7-.4 1.1-.3.5-.2 1-.4 1.5-.5.4 0 .7-.4 1.1-.3 1-.6 2-1.2 3.2-1.3.4-.3.8-.5 1.3-.5l2.7-.6c.4-.4.9-.6 1.5-.6l3.5-1.1c.4 0 .7-.4 1.1-.3.9-.5 1.9-.4 2.8-.9.4-.3.8-.5 1.3-.5.7 0 1.3-.2 1.8-.7.6-.5 1.2-.9 2-1 .5 0 .8-.4 1.3-.4 1.7-.7 3.4-1.3 5.1-2 .2-.1.7-.1.5-.6-.2-.4-.4-.1-.7-.1-1.2-.2-2.2.5-3.3.8-.6.2-1.2.4-1.8.3-1.2.2-2.3.8-3.6.8-.3.2-.7.4-1.1.4-1.3.3-2.4 1.2-3.8 1.1-.7-.1-1.3.6-2.1.3-.9-1.3-1.3-1.4-3.2-1l-.4.1c-.4.1-.8-.1-1.2.2l-.5.2c-.5.2-1 .3-1.5.2l-.2-.2c-.8-.7-1.3-.6-2.5.5-.2.2-.4.3-.7.2-.4-.1-.9 0-1.3.1-.1 0-.2.1-.3.1-.4-.1-.8.1-1.3 0-.9-.1-1.7.4-2.6.5-.3.2-.6.3-1 .4-2.1.3-4 1.1-5.9 1.9-.8.3-1.6.5-2.4.4-.6-.3-1.1-.1-1.6.3l-.9.3c-1.5.3-2.9 1.3-4.6 1.3-.6 0-1.3.3-1.8 1-.3.4-.8.6-1.2.6-1.6.2-3.3.2-4.7 1.2-.1.1-.2.1-.3.1-3 .7-5.8 2.1-8.7 3.2-.5.3-1 .5-1.5.6-.3-.1-.7-.1-.9.2l-.4.2c-.8.1-1.6.3-2.4.5-2.1.7-3.8 2.2-5.9 2.9-.2.2-.4.3-.7.3-.4.1-.8.3-1.2.5-1.8.9-3.7 1.5-5.6 2.2-1.1.8-2.2 1.4-3.5 1.8-.3.1-.6.1-.8.4-.2.1-.5.2-.8.3-.2.2-.7.2-.8.6-.3.3-.7.4-1.1.5-.6.3-1.2.3-1.6 1 0 .1-.1.1-.1.1-.4.3-.9.4-1.3.6-.2.4-.7.5-1 .8-.4.3-.9.4-1.4.6-1.4.4-2.5 1.2-3.4 2.2 0 .1-.1.1-.1.1-.5.5-1.5.4-1.8 1.2 0 .1 0 .1-.1.1-.6.5-1.6.5-2 1.3-1.1.6-2.1 1.3-2.9 2.2-1.4 1.7-3.7 2.1-5 3.9-.2.2-.5.2-.8.4l-.3.3-.3.1-.2.3c-.1.1-.2.1-.2.2l.8.3-.1.1c-.3.1-.6.2-.7.5-.1 0-.1.1-.1.1-.4.7-1 1.3-1.8 1.7-1.2.6-2 1.8-3 2.6-.1.1-.2.2-.4.3-.1 0-.2.1-.3.1v.2l-.1.1-.2.2-.1.1-.2.3v.2c-.1.1-.2.1-.3.2-.4.3-.7.6-1 .9 0 .1-.1.1-.1.1l-.3.1c-.1.1-.2.3-.3.4l-.6.7-.7.7-.7.8v.1l-.8.8-.7.7s-.1 0-.1.1c-1.4 1.5-2.4 3.3-4.1 4.6-.2.1-.3.4-.4.6-.7 1.2-1.7 2.2-2.4 3.4h.1v.1c0 .1 0 .1-.1.2l-.6.6v.1s-.1 0-.1.1c-1.1 1.2-2 2.5-2.8 4-.9 1.3-1.7 2.6-2.4 3.9-.5.3-.9.6-1.1 1.1-1.4 3.3-3.2 6.5-4.8 9.7-1.5 3-2.7 6.1-4.1 9.2-.4 1-.6 2.1-.7 3.2-.1.1-.1.2-.1.3-.3.1-.3.3-.3.6-.3.1-.3.3-.3.6-.3.1-.3.3-.3.6-.2.1-.3.3-.2.6-.3.1-.3.3-.3.6-.2.1-.3.3-.2.6-.2.1-.3.3-.2.6-.2.1-.3.3-.2.6-.2.1-.3.3-.2.6-.3.1-.3.4-.2.6-.1.1-.1.2-.2.2h-.1l-.3.4c-.5 1.3-.8 2.6-1.1 3.9 0 .1-.1.3.2.4zM77.4 73v.2l-.1.1c-.1 0-.2.1-.2.1l.1-.1c.1-.1.1-.2.2-.3zm-3.5 3.7c.1 0 .1-.1 0 0 .1-.2.2-.3.3-.4 0 .1-.1.2-.1.3 0 0-.1 0-.2.1zm1-1.2c0 .1-.1.2 0 .3-.1 0-.2.1-.3.1l.1-.1c.1-.1.1-.2.2-.3zM69 82.6zm-.2-.2v.3c-.1 0-.2.1-.2.1l.1-.1c-.1-.2 0-.2.1-.3zm-23.2 36.2c.1 0 .1 0 0 0zm-.2.6zm-.2.6z"/>
    <path id="XMLID_212_" class="st0" d="M187.5 106c-.7-.3-1.4-.5-1.9-1.1-.7-.7-1.5-1.1-2.5-1.1s-2 0-2.9-.2c-.7-.2-1.6-.5-1.8.2-.3.8.6 1.1 1.3 1.4.2.1.3.2.5.2 1.4.2 2.4 1 3.4 2 .2.2.3.5.6.3l-.4-1.2c.3-.4.8-.5 1.2-.5.8.2 1.6.7 2.5 0z"/>
    <path id="XMLID_213_" class="st0" d="M121.2 85.7z"/>
    <path id="XMLID_214_" class="st0" d="M127.7 79.6c-.7-.3-1-.2-1.3.2v.3c.6.1.8-.2 1.3-.5z"/>
    <path id="XMLID_215_" class="st0" d="M133.6 79.9c-.6.2-.9.5-1.3.9.7-.1 1.1-.3 1.3-.9z"/>
    <path id="XMLID_216_" class="st0" d="M125 84.2l-.9 1.4v.5c.5-.4.8-1.1 1.1-1.6.6-.3 1.1-.6 1.5-1.2-1.1-.6-1.3.3-1.7.9z"/>
    <path id="XMLID_218_" class="st0" d="M129 81.8h.1z"/>
    <path id="XMLID_219_" class="st0" d="M120.9 88z"/>
    <path id="XMLID_220_" class="st0" d="M210.6 51.4c-.1.2-.4.4-.3.7.2-.1.4-.1.7-.2.2-.1.4-.2.3-.5-.2-.5-.4-.1-.7 0z"/>
    <path id="XMLID_221_" class="st0" d="M125 81.1c-.1.3.4.3.6.4v-.1.1c.1.2.3.4.4.1.2-.4-.4-.3-.4-.6l-.1.1c-.1-.4-.5-.3-.5 0z"/>
    <path id="XMLID_222_" class="st0" d="M129.5 83.4c.4-.1.7-.2.8-.7-.5.1-.6.3-.8.7z"/>
    <path id="XMLID_223_" class="st0" d="M125.6 81.5z"/>
    <path id="XMLID_224_" class="st0" d="M163.2 66.7z"/>
    <path id="XMLID_225_" class="st0" d="M71.2 116.7z"/>
    <path id="XMLID_226_" class="st0" d="M128.4 85.5c.4 0 .6-.3.8-.7-.5.2-.8.3-.8.7z"/>
    <path id="XMLID_227_" class="st0" d="M208.4 56.8c.4-.1.8-.1.9-.7-.5 0-.6.4-.9.7z"/>
    <path id="XMLID_228_" class="st0" d="M163.2 66.7l1.2.5c-.3-.5-.5-.7-1.2-.5z"/>
    <path id="XMLID_229_" class="st0" d="M113.3 70.9c.1.2.3.1.5.1.1 0 .1-.1.3-.2-.2 0-.4-.1-.5-.1-.1 0-.3.2-.3.2z"/>
    <path id="XMLID_230_" class="st0" d="M114.1 70.8z"/>
    <path id="XMLID_231_" class="st0" d="M125.1 136.4l-.2.4c0 .1.1.1.1.2l.9-.4-.8-.2z"/>
    <path id="XMLID_232_" class="st0" d="M42.9 127.3c-.1-.4-.3-.2-.5-.1-.1.1-.1.2.1.3.2.2.2 0 .4-.2z"/>
    <path id="XMLID_233_" class="st0" d="M66.5 105.3z"/>
    <path id="XMLID_234_" class="st0" d="M72.7 114.1z"/>
    <path id="XMLID_235_" class="st0" d="M71.8 113z"/>
    <path id="XMLID_236_" class="st0" d="M68.1 83.4v.1-.1z"/>
    <path id="XMLID_237_" class="st0" d="M71.1 79.8z"/>
    <path id="XMLID_238_" class="st0" d="M89.7 112.4z"/>
    <path id="XMLID_239_" class="st0" d="M45.9 118z"/>
    <path id="XMLID_242_" class="st0" d="M193.3 114.4c-.1-.1-.3-.1-.4-.1-.3-.4-.7-.7-1.1-.9-.5-.2-1.1-.6-1.3-1.1-.3-.8-.7-.7-1.3-.4-.7.4-1.3.3-1.8-.4-.6-.8-1.5-1.1-2.5-1.4-.9-.2-.8.2-.6.8.2.8.2 1.5.1 2.3-4.3.3-8.6 1.8-12.6 4 0-.1 0-.3.1-.4 0-.5-.5-1-.4-1.6.1-.4.2-.7-.2-1.1-.5-.4-.7-1-.5-1.7.3-.9-.8-2.4-1.7-2.2-1 .2-1.2-.4-1.1-1.1.1-.5-.1-.7-.5-.9-.5 0-.8.4-1.3.4-.5.3-1.1.5-1.6.8-1 .6-2.1 1.3-3.2 1-.9-.2-1.1.1-1.3.8l-.3 1.2c-.2.4-.7.3-1 .6-.5.6-1 1.1-1.7 1.5-1.8 1.1-3.1 2.5-3.6 4.7-.2.8-.9 1.4-1.9 1.3-.3-.3-.4-.6-.4-1.1.9-3.6 2.5-6.8 4.7-9.7 1.4-1.8 2.9-3.4 5.1-4.3 1.2-.7 2.5-1.2 3.9-1.5.2-.1.4-.1.4-.4.4-.4.9-.5 1.5-.6 1.1-.4 2.1.4 3.4.2-1.7-.8-3.3-.7-4.7-1.5-1.1.2-2.1.9-3.3 1.1-.9.1-.7-.7-.8-1.1-.1-.3.1-.7 0-.9-1.1-1.3-1-3-1.5-4.5-.5-.9-.9-1.8-1.1-2.8-.1-.5-.6-.8-.3-1.4.3-.3.7-.5 1.1-.4 1.3 0 1.4 1.2 2 1.9.4-.1.2-.3.2-.5-.1-.5-.5-.8-.4-1.4l-1.2-3.2c0-.5-.4-.8-.3-1.3.2-.6-.2-1.1-.3-1.6-.6-3.2-.4-6.4-.3-9.7.1-1.4.4-2.9-.4-4.3-.2-.3-.1-.7-.1-1-.1-3.5-.1-7-.1-10.4 0-.5.1-1.2 1.1-.9 1.1.3 2 .9 3 1.2 2 .7 4.1 1.2 5.5 3 .2.1.3.2.2.4-.2.3-.4 0-.5 0-1.7 0-3.1-.9-4.7-1.1.4.3 1 .4 1 1h-.7c-.2 0-.5-.3-.6.2 0 .4.3.3.4.4.2.1.4.1.6.2 1.2.4 2.3.8 3.3 1.5.6.3 1 .8.9 1.4-.1.5-.9.4-1.4.5 1.3.6 2.4 1.2 3.6 1.8 4.8 2.4 8.3 5.9 9.9 11.2 0 .4.4.7.3 1.1.6 2.5 1.2 5.1 1.7 7.7.1.4.1 1 .6.9.4 0 .2-.6.3-1 .6-5.5 0-10.9-1.6-16.1-.1-.4-.2-.7-.4-1-.9-2.2-2-4.3-3.3-6.3-.8-1.1-1.4-2.4-2.5-3.2-4.4-3.1-9-5.5-14.1-7.2-.2-.3-.5-.4-.9-.3-.4-.1-.9-.2-1.3-.2-.4.3-.8.6-.7 1.1v.3c-.1.2 0 .3 0 .5 0 .1-.1.2-.1.2-.2.8-.1 1.6-.6 2.3 0 .7-.9.6-1.1 1.2-.2.3-.1.6-.1.9-.2 1.1-.6 2.1-.7 3.2-.1 1.8-.4 3.5-.4 5.3-.1 4.9.1 9.7 1.9 14.3.1.2.4.5.1.7-.4.2-.5-.1-.7-.4-3.1-3.9-6.6-7.3-10.7-10.1 0 .1-.1.2-.1.2v-.4c-1.3-.8-2.6-1.6-3.8-2.6v.1c-.3-.2-.5-.2-.8-.1-.6.3-1.2.2-1.7-.2-1.5-1-3.2-1.5-4.8-2.3-.8-.4-1.5-.9-2.4-.9l-4.1-1.4c-.7 0-1.2.5-1.8.5-.2.1-.4.3-.7.1-.5-.1-1.1-.2-1.6-.3-1.1-.2-2.1-.6-3.2-.6l-2.8-.3c-.3-.2-.7 0-1.1-.1-.4-.1-.7 0-1.1-.1-.1 0-.1.1-.2 0-.3-.1-.7-.1-1-.1-.2.1-.3.2-.5 0-.4-.3-.8.3-1.2.2-.9-.3-1.7.4-2.6.5-1.7 0-1.7 0-2.4-1.8-.9 0-.7.9-1 1.4 0 .3.1.7-.1 1v.2c-.2.3-.1.7-.2 1.1-.7.4-1.3.7-.3 1.5.3.2.4.7.4 1.1v.7c.3 1.7.7 3.4 1 5.1-.1.4.1.7.3 1 .9 2.3 1.8 4.7 2.7 7 .2.2.3.4.5.6v.1c.1.2.3.4.5.5 0 .1.1.1.1.2 0 0 .1.1.1.2 0 .3.2.4.5.6.1.1.2.2.2.4.2.4.5.6.8 1 1 1.3.9 2.2-.2 2.8v.2c-.1.1-.2.2-.2.4 0 .3.3.3.5.3l.2-.2v-.1c.3-.1.4-.6.9-.4-.5 1.1-1.1 2.1-1.8 2.9-.2.2-.6.7-1.1.2-.4-.5-.7 0-1 0-.1.1-.2.1-.2.2-.1.7-1.3.7-.9 1.6-.6-.1-1.2.6-1.7-.2-.8.3-1.6.6-2.3.9h-.1c-.2 0-.4-.1-.6-.1l-.2.1c-.2 0-.3 0-.5-.1-.4.1-.7.3-1.1.3-.4 0-.7.2-1.1-.1-.6-.1-1.2.1-1.8.2h-.3l-.2.1h-2.1c-.3.1-.5.2-.8.2h-.1s-.1 0-.1-.1h-.2l-.3.1c-.1 0-.2 0-.4-.1h-.5c-.4.1-.7.1-1.1.1-.3.1-.5.2-.7.2h-.1l-.5.5-.6.2h-.3c-.2 0-.4-.1-.7-.1l-.3.1h-.5c-.5.2-1 .5-1.5.5h-1.3c-.6.2-1.2.6-1.9.7h-1.2c-.6.2-1.2.6-1.9.7h-.3c-.1 0-.1 0-.2.1h-.9c-2.5 1.3-5.3 1.5-7.9 2.6l-.3.3-.1.1v.1c-.2.1-.3.3-.5.3-.8.5-1.8.6-2.6 1.1-1 .3-1.8 1.1-2.8 1-.4-.4-.4-.9-.7-1.4h.1c0-.2-.1-.4-.3-.3-.1 0-.1.1-.2.2-.1 0-.2.1-.3.2-.5.7-.5 1.3-.2 2.1.4 1 1.2 1.8 1.6 2.8.1.4.3.8.4 1.2.1.1.3.2.4.3 0 .1.1.2.1.3.1 0 .1.1.1.2l.2.1s0 .1.1.1c.3.3.3.7.5 1.1l.5.5v.1c.1 0 .1.1.1.1s0 .1.1.1c.1.1.2.2.3.4.2.2.4.3.5.6l.1.1.1.1c.2.2.2.4.4.7.2.1.3.2.4.4 0 .1 0 .1.1.2.1 0 .1.1.1.1l.1.1c.1.1.2.2.3.4.1.1.2.1.3.2 0 .1.1.2.2.3.1 0 .1.1.1.1l.1.1c.1.1.2.2.3.4.1.1.2.1.3.2 0 .1.1.2.2.2s.1.1.1.1c.1.1.2.2.3.2l.3.3c0 .1.1.2.1.3 0 0 0 .1.1.1l.3.3c.2.1.4.3.5.5 0 .1 0 .1.1.2h.1l.1.1c.2.1.3.2.4.3l.1.3s0 .1.1.1l.3.3c.1 0 .2.1.3.2 0 .1 0 .2.2.3l.4.4c.2.3.4.6.6.8.2.2.2.4.2.6-.1.8-.4 1.5-1.2 1.8-.8.3-1.2.8-1.5 1.5 0 .1-.1.1-.1.2-.1.4-.5.6-.8.8-.7.3-.9 1-1.3 1.4l-.3.4c0 .1-.1.1-.1.2l-.2.1-.1.1c-.1.1-.2.1-.3.2l-.4.3c-.2.3-.4.6-.7.8-.2.3-.5.5-.7.8-.1.4-.5.5-.7.8-.1.4-.5.5-.7.7-.7.4-.5 1.3-1 1.7-.2.3-.6.3-.9.5-.2.2-.4.5-.7.7l-.2.2c-.1.3-.5.4-.7.7-.2.3-.6.4-.7.8-.1.4-.4.5-.7.7-.4.5-.7 1.1-1.2 1.6-.2.3-.5.5-.8.7-.1.1-.2.2-.4.3-.2.3-.5.5-.8.7-.8.8-1.6 1.7-2.3 2.6-3.3 3.7-6.6 7.4-9.9 11-.1.3-.3.6-.6.8-.1.1-.1.2-.2.2-.1.3-.4.4-.7.6l-.3.3c-.1.3-.5.5-.7.8-.1.4-.4.5-.7.7-.3.4-.6.8-.9 1.3-.5.5-.8 1.2-1.4 1.7-.2.3-.5.5-.8.7-.2.3-.6.4-.7.8-.1.4-.4.6-.6.8-.1.4-.4.5-.7.7-.6.7-1.1 1.4-1.7 2.1-.1.4-.4.6-.7.8-.2.3-.6.4-.7.8 0 .4-.4.6-.6.8-.3.4-.7.8-1 1.3-.1.4-.4.5-.7.7-.2.3-.6.4-.7.8-.1.4-.4.6-.6.8-.7 1-1.6 1.9-2.3 2.8 0 .4-.4.6-.6.8-.2.3-.4.6-.7.8-.3.4-.6.9-1 1.3-.1.4-.4.6-.6.8-.2.3-.4.6-.7.7-.7.9-1.3 1.8-2 2.6 0 .3-.2.5-.5.7l-.2.2c-.2.3-.4.5-.7.7-.3.4-.7.9-1 1.3-.1.4-.4.6-.6.8-.4.4-.7.9-1 1.3-.1.4-.4.6-.6.8-.4.4-.7.9-1 1.3 0 .4-.4.6-.6.8-1 1.7-2.3 3.1-3.4 4.7-.4.4-.6.9-1 1.4-.4.4-.6.9-1 1.4-.4.4-.6.9-1 1.4-.4.4-.6.9-1 1.4-.4.4-.6.9-.9 1.4-.7 1.1-1.5 2.2-2.2 3.3-.4.5-.7 1.1-1 1.7-.2.5-.1.8.4 1 .4.5.6 1.1.4 1.7-.3 1 .2.7.7.6.4-.1.6-.4.8-.7 1.5-1.8 2.8-3.6 4.3-5.4 3.2-3.9 6.5-7.8 9.8-11.6 4.3-5 8.5-10 12.9-14.9 3-3.4 6.1-6.7 9.2-10.1 1.8-2 3.7-4 5.7-5.9.3-.3.6-.5 1-.4.4.3.8.7 1.2 1 2 1.9 4.4 3.2 7 4 3.7 1.2 7.5 2 11.1 3.3 2.7 1 5.5.8 8.3 1.2 1.9.3 3.9-.2 5.8 0 .6.1 1.3 0 1.9-.1.5 0 1-.5 1.6-.4.8.1 1.6.5 2.4 0 .8-.6 1.4-.8 1.9.2.1.1.2.3.4.2.7-.6 1.5-.1 2.3-.4 1.2-.5 2.5-1.1 3.9-1 .5 0 .8.1 1.1.6.3.5 0 .7-.4 1l-5.4 4.2c-3.7 2.9-7.4 6-10.9 9.2-4 3.5-7.8 7.2-11.5 11.1-2.7 2.8-5.3 5.7-7.8 8.6-3.1 3.6-6 7.4-8.9 11.2-.5.7-.8 1.5-1.7 1.9-1.2.4-1.7 1.4-2 2.5-.3 1.2-.5 2.4-.9 3.6-.5 1.3-.8 2.6-.1 3.9.2.4.4.7.7 1 .7.9 1.5 1.7 2.7 1.9 5.2.5 10.3-.2 15.3-1.8.5 0 1-.5 1.6-.4l2-.7c.5 0 1-.5 1.6-.4l2-.7c.7-.1 1.3-.6 2-.6l2.6-.9c2.3-.8 4.6-1.7 6.8-2.7l1.9-.8c.4-.4 1-.4 1.4-.7l2.3-1c.4-.4 1-.4 1.4-.7.6-.2 1.1-.5 1.7-.7.3-.4.9-.3 1.2-.7.8-.5 1.8-.9 2.6-1.3 2.6-1.2 5.1-2.6 7.5-4.1 3.3-1.9 6.5-3.9 9.5-6.1 2.2-1.6 4.4-3.1 6.4-5 0-.1.1-.2 0-.3 0 .1.1.2.1.3.2-.3 1.1 0 .6-.8h-.2l.1-.1-.5-1h-.1c-.1-.4-.2-.8-.4-1.1l.4 1.1-1.4-3.1-.5-1.2c-.4-.5-.8-.2-1.1.1l-.2-.2c-.2 0-.3 0-.4.2-.5.2-.8.7-1.4.8-.2.4-.7.3-1 .6-.9.6-1.8 1.3-2.7 1.8-1.4.8-2.6 2-4.3 2.2-.3.9-1.3.6-1.8 1.1-.1.1-.3.1-.4.2-.1.3-.5.2-.6.4-.8.7-1.8.6-2.7 1.1-.5.5-1.2.4-1.7.9-.3.4-.5.9-1.2.7-.5.1-1.1.2-1.5.6-.3.4-.8.4-1.2.6-2.7 1.1-5.5 2-8.1 3.3-.3.2-.5.6-1 .6-.4 0-.7.4-1.2.3l-1.1.4c-1.2.2-2.3 1-3.5 1.2-.4.2-.9.3-1.3.5-1.2.2-2.3 1-3.5 1.2-.3.1-.7.2-1 .4-.9.1-1.6.7-2.5.8l-.8.3c-.6 0-1.1.5-1.7.5l-.6.2c-.5 0-.9.4-1.4.4-1.1.5-2.3.6-3.5.9-3.7.7-7.5 1-11.3.7-.3 0-.7 0-.8-.3-.1-.3.2-.6.5-.8 1.6-1.2 2.5-3 3.8-4.4 2.7-3 5.1-6.1 7.9-9 3-3.2 6.3-6.1 9.5-9.2 5.5-5.5 10.9-10.9 17.1-15.6 2.2-1.7 4.3-3.4 6.4-5.2 1.4-1.3 3.2-2.2 4.8-3.3 1.8-1.2 1.8-1.2 1-3.2-.3-.3-.3-.8-.6-1.1-.2-.3-.3-.7-.4-1-.5-.4-.2-1.5-1.3-1.3-3.7 1.2-7.6 1.9-11.4 2.5-9.7 1.6-19.3 1.6-28.8-.7-2.9-.7-5.6-1.8-8.4-2.7-.8-.3-.7-.5-.1-1 .5-.4 1.1-.6 1.6-.8 1.9-.9 3.5-2.4 5.5-3 .9-.3 1.8-.6 2.3-1.3.4-.5 1-.6 1.5-.7.3-.4.9-.3 1.3-.7 1.6-.7 2.9-1.9 4.6-2.6 1.1-.7 2.4-.8 3.4-1.5v-.1h.1c.3-.4 1.1-.1 1.3-.8.3-.4.6-.2.9-.1.5.4.5-.3.8-.3.2-.2.3-.4.3-.7l.1-.2c.5-.5 1.3-.5 1.9-.9 1-.4 2.1-.9 3.2-1.3.9-.6 2-.7 3-1.3l1.9-.8c.5-.5 1.2-.4 1.7-.8.5-.5 1.2-.4 1.8-.3.5-.4 1.1-.6 1.7-.7l1.4-.5c.7 0 1.2-.5 1.8-.5l.8-.3c.3-.4.9-.3 1.3-.7.3-.2.3.4.6.3 1.3-.3 2.4-1.1 3.7-1.3 1.5-.4 3-.8 4.5-1 .4 0 .5-.4.9-.4.9-.1 1.8 0 2.5-.5 1-.7 2-.6 3.2-.6 2.2 0 4.4.5 6.6.1.3.2.6.1 1-.1.2-.1.3-.2.1-.4-.3-.3-.8-.3-1.2-.4-.2-.1-.8.3-.7-.4.1-.2.1-.3-.2-.4-1.6.1-3.2-.3-4.8-.3-1.1-.1-2.2-.6-3.3-.6-1.3 0-2.3-.8-3.5-.7-.1 0-.3-.1-.4-.2-1.2-.9-2.6-.9-3.9-.7-.7.1-1.3-.1-1.9-.4-.9-.4-1.8-1-2.9-1-.3.2-.6.1-.9.1-1.1-.7-2.2-1.4-3.7-1.3-.3 0-.6-.2-.8-.3-.9-.6-1.9-.9-2.9-1.3-2-.8-4.1-1.4-5.9-2.5-.6-.4-.9-.7-.3-1.4.8-.8 1.5-1.7 2.3-2.5 0-.6.5-.3.8-.5 1.6-1.6 2.3-3.8 4.5-5 .8-.4 1.7-1.3 1.7-2.5.1 0 .1 0 .2.1.3-.4.5-.9 1.1-1.1 0-.1 0-.2-.1-.2v-.1c.1 0 .2 0 .3-.1 0-.1 0-.2.1-.2 0 .1 0 .2.1.2.3-.3.6-.4.6-.9.7-.2 1-.7 1.4-1.2-.1 0-.1 0-.2.1.1 0 .1-.1.2-.2.5-.5 1.1-1 1.6-1.5.2-.3.7 0 .9-.3 1.3-1.8 2.9-3.4 4.5-4.9.7-.7 1.6-1 2.6-.7 1.6.4 3.1.7 4.7.8 2.5.2 5 .9 7.4 1.5 1.2.3 2.4.8 3.6 1.3 1.8.7 3.7 1.3 5.3 2.5 1.4 1.1 3 1.9 4.5 2.8.3.2.8.3 1 0 .8-1.3 1.5-.6 2.3-.1.1.1.3 0 .4 0 .3.3.5.6.9.8.8.2 1.5.7 2.2 1.2.6.4 1.2.7 2.3.5-1.2-.6-1.8-1.5-2.7-1.9-1.2-.5-2-1.5-3-2.2-.4-.3-.2-1-.8-1.2-.7 0-1.3-.2-1.6-.8-.3-.6-.7-1-1.3-1.3-.2-.1-.3-.3-.5-.6-.2-.5-.5-1-.9-1.4-2.3-2-4.8-3.9-7-6.1-2-1.9-3.9-3.9-5.7-6-.4-.5-1-1.3-.4-2.1-.4-.1-.9.6-1.2.1-.2-.4.5-.7.8-1 .4-.4.9-.7 1.3-1.1.8-.9 1.9-1.5 2.4-2.7 0-.2.2-.3 0-.5l-2.5 1.2v.2h-.1c0 .1 0 .1-.1.2 0-.1 0-.2-.1-.3-.6.3-1.2.6-1.5 1.1-.4.7-.9.6-1.5.4.2-.6.8-.8 1.1-1.2.1 0 .1 0 .2.1.7-.3 1.2-.9 1.7-1.4.1.7.5.7.9.3.3-.3.6-.6 1-.8v-.1h.1c.2-.1.4-.2.3-.5-.1-.2-.3-.4-.4-.3-.2.1-.4.4-.7.6-.1.1-.3.2-.4.3-1.1.4-2.2.6-2.9 1.5-.1 0-.3.2-.4.3-1.4 1.2-1.8 1.4-2.4.5-1.2-1.7-2.7-3.1-3.3-5.2-.4-1.5-1.1-3-1.7-4.5-.8-1.9-1.6-3.9-1.9-6-.1-.7 0-1.1.7-1.2 1.7-.3 3.5-.5 5.2-.8.1 0 .1.1.1.1 0 1.1.1 2.2 1.4 2.6.8.3 1.6.3 2.5.3h.7c1.6.3 3.2.9 4.9.6-.3-.1-.6-.1-.8-.2.2 0 .5.1.7.1 2.3 1.3 5 1.6 7.2 2.9.1.1.2 0 .3 0 .7 0 1.2.4 1.7 1 0 .1.1.2.1.2l-.8.8c-1.5 1-2.8 2.1-4 3.5-.3.2-.7.4-.6 1 .4-.2.8-.5 1-.8.1 0 .1-.1.2-.1 1-.8 2-1.7 3.1-2.4.4-.3.4-.6.5-.9l1.2-.9-.3-.1s.1 0 .1-.1c1.3.1 2.2.9 3.4 1.2.2 0 .5.2.6.3 1.1 1.3 2.6 1.9 4 2.8.1-.2.2-.5.4-.7-.1.3-.2.5-.2.8l4.5 3.2c3.1 2.2 5.5 5 7.4 8.2 1.4 2.3 2.5 4.7 4 6.9.4.7.3 1.6 1.1 2 .7.4.4.7 0 1-.9.7-1.7 1.5-2.6 2.2-4 3.5-6.9 7.8-9 12.6-1 2.2-1.7 4.5-2 6.9-.6 4.3-.9 8.5 1 12.5.2.5.5.9.8 1.3 0 .1-.1.1-.1.1s3.2 7.6 8.6 11.2c5.4 3.6 22.3 19.1 32.8 9.4 9.1-11 25-38.4 3-46.3zM119 204.6c1.8-1.4 3.6-2.8 5.6-3.9.3-.2.6-.6 1-.2 0 .1 0 .2-.1.2h.2c-.1.1-.2.2-.3.4 0-.1-.1-.1-.1-.2h-.1l-6.7 4.7c-.3.2-.6.5-1.2.6.4-.8 1.1-1.2 1.7-1.6zm-22.3-90.9s.1-.1 0 0zm4.4-7.5c-.2.3-.5.5-.7.7-.1 0-.1 0-.2-.1.3-.1.4-.6.9-.6zm-25 11.5c-.1 0-.1 0 0 0-.2-.3-.4-.7-.8-.9l-1.6-1.6c0 .1.1.1.1.2 0-.1-.1-.1-.1-.2h.1c-.3-.4-.5-.8-.9-1.1 0 .1.1.1.1.2 0-.1-.1-.1-.1-.2h-.1.1c-.3-.4-.5-.8-.9-1.1 0 .1.1.1.1.2 0-.1-.1-.1-.2-.2-1.5-1.7-2.5-3.7-3.7-5.7 1.3-.1 2.5-.8 3.8-.2.7.3 1.5 0 2.2-.4 2.5-1.4 5.2-1.4 7.9-1.8 1-.2 2.2-.1 3.1-.6 2.7-1.3 5.5-.9 8.3-1.3 1.4-.2 2.8-.6 4.3-.4 1 .1 1.5 1.3.9 2.1h.1l-1.7 1.8c-.8.5-1.5 1.1-2.3 1.6.1-.2.3-.5.5-.8-.6.1-.8.6-1.2 1.1l.5-.2c-.7.9-1.5 1.8-2.5 2.2-.8.4-1.3 1.2-1.9 1.8H90l-.8.8h.2l-.2.2c-.8.1-1.3.9-1.9 1.3-.3.4-.7.9-.7 1.4-.3.2-.5.4-.6.7 0 0-.1 0-.1.1-.9 1.2-2.4 1.8-3.3 3-.4.6-1.1.9-1.8 1.2l-3.6-2.8-1.1-.4zm23.1 16.1c2 .5 3.9.9 6 1.4l-1.5.6c-7.3 2.3-14.5 4.9-21.5 8-6.4 2.8-12.6 6-18.3 10.1-2.7 1.9-5.4 4-7.9 6.2-.3.2-.5.4-.9.7-.1-.5.2-.7.4-.9 5.9-6.5 11.9-12.9 17.8-19.4l9.3-10.5c.8-.9 1.5-.9 2.6-.7 5 .9 9.2 3.4 14 4.5zM98 112.6zm1-.9c0 .1-.1.1-.2.1l.2-.1c0-.1.1-.2.2-.3-.1.1-.2.2-.2.3zm.8-1s0-.1.1-.1h.1c-.1 0-.2.1-.2.1zm3.2-4.4c.5-.9 1.4-1.4 2.1-2.2-.5 1-1.4 1.6-2.1 2.2zm18.1-18.6c-.1.1-.2.3-.3.4l-.3.3s-.1 0-.1.1l.3-.3c.2-.3.3-.4.4-.5zm-1.2 1.2zm-4.1 5.5c-1.2 1.2-2.2 2.5-3.9 3 .7-.9 1.3-1.9 2.4-2.4.1 0 .3-.1.3-.1-.2-1.5.8-.3 1.2-.5zm3.3-21.7c-.1 0-.1 0 0 0 0-.1.1-.1.1-.1 0 .1-.1.1-.1.1zm1 .1h.2-.2z"/>
  </g>
</svg>
