<?xml version="1.0" encoding="utf-8"?>
<svg version="1.1" id="Calque_1" xmlns="http://www.w3.org/2000/svg" xmlns:xlink="http://www.w3.org/1999/xlink" x="0px" y="0px"
	 viewBox="0 0 130 130" enable-background="new 0 0 130 130" xml:space="preserve">
<g id="XMLID_93_">
	<path id="XMLID_94_" fill="#FFFFFF" d="M124.9,61c-1.3-6.4-4.7-11.4-10-14.8c-5.3-3.5-11.2-4.6-17.6-3.2l-4.6,1l-1.3-6.1l20.4-4.3
		c4-0.8,5.5-3.3,4.7-7.3c-0.4-1.8-1.2-3.1-2.5-4c-1.3-0.9-2.9-1.1-4.7-0.7l-26.5,5.5c-0.8,0.2-1.4,0.4-2,0.8c-1.8-3.6-4.5-6.5-8-8.8
		c-5.4-3.5-11.4-4.6-18-3.2c-6.6,1.4-11.6,4.8-15.1,10.2c-3.1,4.7-4,8.9-3.9,12.8l-12.6,2.6c-6.4,1.3-11.3,4.7-14.8,10
		C4.8,56.8,3.7,62.6,5.1,69c1.3,6.4,4.7,11.4,10,14.8c5.3,3.5,11.2,4.6,17.6,3.2l4.6-1l1.3,6.1l-20.4,4.3c-4,0.8-5.5,3.3-4.7,7.3
		c0.4,1.8,1.2,3.1,2.5,4c1.3,0.9,2.9,1.1,4.7,0.7l26.5-5.5c0.8-0.2,1.4-0.4,2-0.8c1.8,3.6,4.5,6.5,8,8.8c5.4,3.5,11.4,4.6,18,3.2
		c6.6-1.4,11.6-4.8,15.1-10.2c3.1-4.7,4-8.9,3.9-12.8l12.6-2.6c6.4-1.3,11.3-4.7,14.8-10C125.2,73.2,126.3,67.4,124.9,61z M42,72.5
		c-0.2,0-0.3,0.1-0.4,0.1c-0.2,0-0.5,0.1-0.7,0.1L30.1,75c-3,0.6-5.7,0.1-8.3-1.6c-2.6-1.7-4.1-4-4.8-7c-0.6-3-0.1-5.7,1.6-8.2
		c1.7-2.5,4-4.1,7-4.7l19-4c1.8-0.4,3.1-1.2,4-2.6c0.8-1.3,1.1-2.7,0.8-4.4c0-0.1,0-0.2-0.1-0.4c-1.1-5.4-0.7-6.6,1-9.2
		c1.7-2.6,4-4.2,7.1-4.8c3-0.6,5.9-0.1,8.5,1.6c2.6,1.7,4.2,4,4.8,7.1C72.2,44.2,62.5,68.2,42,72.5z M111.3,71.8
		c-1.7,2.5-4,4.1-7,4.7l-18.9,4c-1.8,0.4-3.1,1.2-4,2.6c-0.8,1.3-1.1,2.7-0.8,4.4c0,0.1,0,0.2,0.1,0.4c1.1,5.4,0.7,6.6-1,9.2
		c-1.7,2.6-4,4.2-7.1,4.8c-3,0.6-5.9,0.1-8.5-1.6c-2.6-1.7-4.2-4-4.8-7.1c-1.5-7.3,8.2-31.4,28.7-35.7c0.2,0,0.3-0.1,0.4-0.1
		c0.2,0,0.5-0.1,0.7-0.1L99.9,55c3-0.6,5.7-0.1,8.3,1.6c2.5,1.7,4.1,4,4.8,7C113.5,66.5,113,69.3,111.3,71.8z"/>
</g>
</svg>
