<svg xmlns="http://www.w3.org/2000/svg" viewBox="0 0 150 150">
  <path fill="#FFF" d="M74.9 21.6c17.4 0 34.8.2 52.1-.1 10.4-.2 18.5 7.4 18.3 18.3-.4 23.7-.1 47.4-.1 71.1 0 10.5-6.7 17.5-17.2 17.5-35.4.1-70.8.1-106.2 0-10.5 0-17.2-6.9-17.2-17.5V39c0-10.5 6.8-17.3 17.4-17.3 17.6-.1 35.3-.1 52.9-.1zM131 47.8c-1 .8-1.6 1.2-2.2 1.6C115 61.1 101 72.6 87.4 84.6c-4.6 4-9.2 6.1-15 5.1-2.1-.3-4.6-.9-6.2-2.2-15-12.5-29.9-25.2-44.9-37.8-.6-.5-1.3-1-2.3-1.8-.1.9-.1 1.3-.1 1.8v61.2c0 2.9 1.5 3.3 3.8 3.3h104.5c3.4 0 3.8-.5 3.8-4V47.8zM121.7 36H28.2C44 49.5 59.4 62.5 74.9 75.6c15.5-13.1 30.9-26.1 46.8-39.6z"/>
</svg>
