<svg xmlns="http://www.w3.org/2000/svg" viewBox="0 0 342.7 166.5">
  <path fill="#FFF" d="M101.1 101.8l5.2 59 236.4-22.6-5.2-59-236.4 22.6m233.4-21.3l-233.4 21.2m0 .1l5.2 59m49.8-114.9c.8-1.2 1.9-2 2.9-3 .6-.7 1.3-1.3 1.9-1.9 2.4 3.7 4.2 7.6 5.5 11.8.1.3.1.6.4.5.3-.1.2-.4.2-.6 0-4.4 1.5-8.4 3.1-12.4.6-1.5 1.4-2.8 2.1-4.2.4-.9 1-1.6 1.6-2.4.1-.2.1-.5.3-.7.4-.4 1-.1 1.3-.6.6-.4.9-1.1 1.3-1.7.3-.2.3-.5.4-.8.1-.5.5-.6.9-.7.3.2.7.4 1 .6.3.1.5.2.6.5 3.7 3 6.7 6.5 9.3 10.4.7 1 .8 2.3 1 3.5.4 2 .6 4.1.7 6.2.1.3.1.7 0 1-.4 4.9-1.7 9.5-3.9 13.8-.1.3-.2.8-.5.7-.4-.1-.2-.6-.1-.9.4-2.3.8-4.6 1.1-6.8.2-.3 0-.7.1-1 .4-4.8-1.3-8.9-4.5-12.4-.8-.8-1.5-1.7-2.4-2.6.5.1 1.1.5 1.4 0 .3-.5.1-1-.3-1.5-.7-.8-1.4-1.6-2.3-2.3-.1-.1-.3-.2-.5-.4-.1-.1-.4-.2-.2-.5.2-.4.4-.1.6 0l.6.2c.2-.5-.3-.8-.5-1.2 1.3.7 2.2 1.9 3.5 2.4.1.1.2.4.4.2.1-.1.1-.3 0-.4-.6-1.9-2.1-3-3.5-4.2-.7-.6-1.3-1.4-2.1-2-.8-.5-1.1 0-1.2.4-1.1 2.9-2.2 5.8-3.3 8.6-.1.3-.2.6-.2.9.2 1.4-.5 2.5-1.1 3.7-1.2 2.6-2.4 5.2-2.9 8.1-.1.5.1 1-.3 1.4-.2.4 0 .8-.1 1.2l-.1 3c-.2.4-.1.8-.1 1.2 0 .2 0 .4-.3.4-.3-.8.1-1.8-1-2.2-.3-.2-.7-.2-1 0-.4.3-.1.8-.2 1.2-.2.9-.2 1.8 0 2.7-.1 1.4-.7 2.7-.2 4.2.1.2-.3.5-.3.7 0 .4-.5 1 .3 1.2 1 .2 2 0 3.1.2.9 1 2.3 1.5 3.4 2.7-1.1-.3-1.8-1.2-2.8-1.2-.5-.2-.9-.2-1.4 0-.1.2-.3.2-.4.2-1.2-.2-2.4-.2-3.7 0-2 .1-3.9.9-5.5 1.9-2.8 1.7-5.2 3.8-7 6.4-.2.3-.2.7 0 1 .8.5 1.6.2 2-.4 1.1-1.6 2.7-2.3 4.5-2.7.6-.1 1.3-.3 1.8-.7.3-.1.7.1 1-.1l.6-.9c.4-.5.6-.7 1.3-.2.9.6 2 .4 3 .2.5-.1 1.1-.1 1.6-.1.4.2.8 0 1.2.1.3.3.4.5.1.9-.3.5-.4 1 .6 1.2.8.2 1.2 1.7.7 2.3-.4.5-.5 1-.2 1.5.2.4 0 .7-.2.9-.2.5 0 1-.1 1.4-.4.5-.2 1.2-.2 1.8 0 .4.3.3.5.3 1.3.1 2.6 0 3.9-.3 1.4-.3 1.8-.2 2.7 1 .4.6.9 1 1.8.9.5-.1.4-.3.4-.6.2-.3-.1-.7.2-1h.6c.3.1.6.2 1 0 .7-.8 1.1-1.8 1.3-2.8.1-.5.1-.9.8-.4.7.5 1.4 1.1 1.6 1.9.2.8.6 1.1 1.4.9.5-.1.9-.1.9.7 0 .4.3.9.7 1.3.8.8 1 2 .5 2.9-.5 1-1 2-1.7 2.8-.2.3-.6.6-.9.5-1.1-.1-2.1.3-3.2.2-.9-.1-1.7.2-2.6.3-1.1.1-2.3.1-3.4.3-1.1.2-2.1.2-3.2.3-1.2.1-2.4.1-3.6.3-1 .2-2.1.3-3.1.3-1.1 0-2.3.2-3.4.3-2.2.1-4.4.3-6.5.6-2 .3-3.9.2-5.9.6-1.1.2-2.2.3-3.4.3-1 0-2 .3-3 .4-.8-1.5-1.2-3-1.4-4.7-.3-3.9 1.4-7.3 3.2-10.6 1.1-1.9 2.4-3.6 3.9-5.1 3.3-3.2 7.1-5.8 11.5-7.4.9-.3 1.9-.7 2.8-1 .4-.1.7-.3.3-.8-.5-.6-.1-1.3-.2-2-.5-2.3-.7-4.7-1.1-7-.5-3.3-1.6-6.4-3.4-9.2l-2.8-3.9M84.3 29.2c-1.2.9-2.4 1.9-3.7 2.8-.2.2-.6.2-.8.4-.4.2-.6.5-.8.8-.2.2-.6.2-.8.4-.4.2-.7.4-.8.8-1.1 1.3-2.6 2.2-3.8 3.3-1.8 1.7-3.7 3.2-5.5 4.9-.3 0-.5.2-.8.2-.2 0-.4-.1-.5-.3.4-.9 1-1.7 1.6-2.4 2.1-2.1 4.1-4.3 6.3-6.2 2.4-2.1 4.9-4.1 7.1-6.4.3-.4.8-.5 1.2-.6 1-.9 2.2-1.7 3.3-2.4 1.1-1 2.3-1.7 3.6-2.4.4 0 .7-.2.9-.5h-.1c1-.8 2.1-1.3 3.1-2 .2-.1.3-.3.5-.3 1.8-.5 3.2-1.6 4.8-2.4.3 0 .6-.1.9-.4.3-.2.6-.1.8-.4.2-.2.6-.1.8-.4.3-.2.6-.1.8-.4.3-.1.6-.1.8-.4.3-.1.6-.2.8-.4.4-.2.7-.4 1.1-.5.3-.1.6-.1.8-.3.1-.1.1-.1.2-.1.3-.1.6-.3.9-.4 1.1-.3 2.1-1 3.3-1.2.8-.1 1.5-.4 2.1-.8.3-.1.7-.1.9-.3l.2-.1c.4-.2.8-.3 1.1-.5.3 0 .6.1.8 0 1.6-1.1 3.7-.7 5.4-1.6.9-.5 2-.8 3.1-.9.6-.6 1.4-.2 2.1-.4h.1c.6-.5 1.3-.1 1.9-.4h.1c1.1-.5 2.3-.8 3.6-.7.4 0 .9.1 1.3 0s.7-.1 1.1-.3c.4-.1.8.1 1.2-.1h.1c.5-.4 1.1-.3 1.6-.3.4 0 .7.1 1.1-.1.2-.3.6-.1.9-.2h.7c.2-.2.5-.1.8-.1 1.2.1 2.3 0 3.5-.4 1.8.1 3.5.1 5.3 0h1.2c.2.1.4.1.6 0 1.9.2 3.8-.6 5.8-.5.7.1 1.4.1 2.1.3h.4c.3-.2.6-.1.8.1.5.1.9.1 1.4 0 2.7 0 5.5-.3 8.2.2.1 0 .2.1.3 0 1.5-.4 2.9.1 4.3.5.4.1.8.1 1.2-.1.6-.4 1.2-.4 1.8-.2 1.4.6 2.8.2 4.2.4h.8c.5-.1 1-.2 1.4.3.6.4 1.4.5 2.1.5 1.8 0 3.7-.1 5.5.3.3.1.6.1.9 0 .8.2 1.6 0 2.3.4.3.2.7.1 1 .4h.3c.4.1.8.2 1.1.4.2.1.4.1.6 0 1.4-.5 1.8-.4 2.2.4l.1.2c.4.2.8.3 1.3.3h.4c.4-.1.7.2 1 .2h.3c1.7.2 1.9.4 2.3 1.8.5.5 1.3.1 1.8.4 1.1.5 2.3.1 3.5.3.3.1.7.1 1 0 1 .4 2.2.3 3.2.5.5.2 1.1.3 1.6.3 1 .1 2-.1 2.9.4.2.1.5-.1.5.3 0 .5-.4.3-.6.3h-4.9c-.4-.2-.8 0-1.2-.1-.7-.2-1.3 0-1.9.2-.6.2-1.1.2-1.7 0-.4-.2-.8-.2-1.2 0-.9.1-1.7-.3-2.6-.2-.3-.2-.7 0-1-.1l-3.2-.3c-.5-.2-1-.2-1.4 0l-2.4-.4c-.4-.2-.8-.2-1.2 0-1-.3-2-.2-3 0-.3-.2-.7 0-1-.1-.5 0-.9 0-1.4-.1-.3-.2-.7 0-1-.1l-1.2-.1c-.3-.2-.7 0-1-.1l-1.4-.1c-.3-.2-.7 0-1-.1-.4 0-.8 0-1.2-.1-.4-.2-.8 0-1.2-.1l-1.2-.1c-.3-.2-.7 0-1-.1-.5-.1-1 .1-1.5-.3-.1 0-.1-.1-.2-.1-2.8.3-5.5-.2-8.2-.5-2.1-.3-4.4.2-6.5-.6-.3-.1-.7 0-1.1 0-2.2-.1-4.5.1-6.7-.1-1.6-.1-3.1-.1-4.7 0-.7.3-1.4.1-2.1.1-1.8 0-3.7-.2-5.5.1-2.1.3-4.2.1-6.3.6-.9.3-1.8.1-2.6.1-.4 0-.9 0-1.2.3-1.7.2-3.4.4-5.2.6-2 .2-3.8.9-5.8 1.1-1 .6-2.1.5-3.2.8-2.3.6-4.6 1.1-6.9 1.8-1.2.4-2.4.6-3.5 1.1-.3.1-.7.1-1 .4-.8.3-1.6.5-2.3.9-.3.1-.7 0-.9.3-.3.1-.6.3-.8.4-.4.2-.8.3-1.1.5-.3.1-.6 0-.9.3-.3.1-.6.2-.8.4-.3.1-.6.3-.8.4-.1 0-.2.1-.4.1-.2.1-.5.1-.7.2-.1 0-.1.1-.2.1-.2.1-.5.2-.6.4-.2.2-.6.2-.8.4-.3.1-.6.1-.8.4-.4.3-.8.5-1.2.8-.3 0-.6.1-.8.3-.3.1-.5.3-.8.5-.1 0-.1.1-.2.1-.2.1-.5.2-.6.4-.4.2-.8.5-1.2.8-.3 0-.6.2-.8.5-.5.3-.9.6-1.4.8-1.8.9-3.4 2.3-5.2 3.1-.3.1-.6.2-.8.4m137 14.1c-.6.7-1.1 1.4-2.2 1.3-.6 0-1.3.2-1.7.9-.2.4-.8.5-1.2.5-.5-.1-1 .1-1.1.5-.5 1.3-1.7 1.8-2.6 2.6-1.6 1.5-3.6 2.5-5.2 3.9-.2.1-.4.4-.8.2 2.5-2.2 4.8-4.6 7.1-6.9.6-.6 1-1.5 1.8-1.9-.3-.3.8-.7-.1-.9-.2 0-.1-.1.2-.5l7.6-8.8c.3-.3.7-.5 1-.8 2.3-2.5 4.1-5.3 6.3-7.8.7-.8 1.5-1.9 2.7-2.3.3-.1.5-.3.7-.6 1.1-1.1 2.2-2.2 3.2-3.3.5-.6 1.2-.5 1.8-.9 1.3-.7 2.6-1.4 3.9-1.9.9-.4 1.9-.2 2.8-.4.4-.1.8.2 1.1.8.6 1.3.5 2.1-.7 3-.8.6-1.7 1.3-2.2 2.4-.1.3-.8.6-1.2.4-.5-.2-1.1 0-1.6-.3-.4-.2-.8 0-1.1.4-1.3 1.5-2.8 2.7-4 4.3-.6.9-1.3 1.7-2.1 2.5-.3.3-.8.1-1.1.5-.2.3-.2.7 0 1l.1.3c-1.3.1-1.1 1.9-2.3 2.1-.1 0-.4.9-.8 1.3-.4.5-.8.9-1.4 1.1-.1 0-.3.2-.3.3.2 1.5-1.8 1.4-1.8 2.7 0 .2-.4.1-.6.1-.9-.1-1.1.4-.9 1.1.1.4.1.4-.3.6-.6.3-1.4 0-2 .4-.6.4-.5 1-.8 1.5.3.4 0 .5-.2.6"/>
  <path fill="#FFF" d="M143.1 97.8c0-.1.1-.3.1-.3 1.1.1 2.1-.6 3.2-.3.3.1.5.1.9-.1.5-.3 1.1-.4 1.6-.1.2.1.4.2.6 0 .6-.4 1.4-.1 1.9-.3 1.2-.4 2.3-.1 3.5-.3 1-.2 2.1-.4 3.2-.3.2 0 .3.1.5 0 1.5-.4 3-.1 4.5-.4 1.1-.2 2.3-.2 3.4-.3 1.1-.1 2.2-.6 3.4-.2.2.1.4 0 .7-.1 1.3-.2 2.7-.3 4-.4l3-.3c1.3-.1 2.7-.2 4-.4 1.2-.1 2.5.1 3.7-.5.3 1.2-.6.9-1.2 1.1-.4.1-.8 0-1.1.1l-1.1.1c-.4.2-.9-.1-1.3.2l-1.2.1c-.4.2-.9-.1-1.3.1-.3 0-.6 0-1 .1-.4.2-.9 0-1.3.2l-1.1.1c-.4.2-.9-.1-1.3.2l-1 .1c-.4.2-.9 0-1.3.2l-1.1.1c-.4.2-.9-.1-1.3.2l-1.2.1c-.4.1-.8 0-1.1.1l-1.1.1c-.4.2-.9-.1-1.3.2l-1.2.1c-.4.1-.8 0-1.1.1l-1.1.1c-.4.2-.9 0-1.3.2l-1.2.1c-.4.2-.9-.1-1.3.2-.3 0-.6 0-1 .1-.4.2-.9 0-1.3.2l-1.2.1c-.4.2-.9-.1-1.3.2l-1.2.1c-.4.1-.7 0-1.1.1l-1.1.1c-.4.2-.9 0-1.3.2l-1.2.1c-.4.1-.8 0-1.1.1-.5 0-1-.1-1.4.2 0-.8-.3-1.1-.5-1.4m39.2-18.2l-.1 1.1c-.3 0-.3-.2-.4-.5-.5-1.1-1.1-2.1-2.1-2.7-.1-.1-.3-.2-.4-.3-.4-.4-1.1-1-.6-1.6.4-.4 1 .1 1.5.4.7.5 1.5.8 2.3 1.1.8.3 1.4.9 1.7 1.7.2.6.8 1 1.2 1.5-.9.3-1.4-.4-2-.7-.4-.2-.7-.2-1.1 0M68 42.6v.2l-.2.2c-.8.6-1.4 1.5-2.2 2.1-.4.3-.7.6-1 1-1.3 1.6-2.9 3-4.4 4.5-.1.1-.3.3-.5.2-.2-.2-.1-.4.1-.5.7-1 1.4-2 2.2-2.9l.4-.2c.1 0 .2.1.4 0 .1-.1.2-.2.4-.3l.4-.4.4-.4.4-.4.4-.4.4-.4.4-.4.4-.4.4-.4.4-.4c.1-.1.3-.3.5-.3.2-.4.4-.4.7-.4m36.2 93.6c.1.4.1.8 0 1.1m0 0c-.1.2-.1.5-.4.4-.3-.1-.4-.3-.4-.5.2-1-.4-1.9-.1-2.9.1-.5-.2-1.1-.3-1.6.4-.2.8-.3 1 .3l.1 1.1m45.5-93.9c-.1.3-.3.5-.7.6-1.1.3-2.2.7-3.3 1-.2 0-.5.2-.5-.2 1.4-.8 2.9-1.2 4.5-1.6.1 0 .1 0 0 .2.1-.1.1 0 0 0m-11.9-12.8c.1.1.2.2.2.3-.4 1.6.7 2.3 1.9 2.9.1 0 .1.2.2.2s.1.1.1.1l-.1.1c-.7-.2-1.4-.5-1.9-1-1.1-.8-.8-1.7-.4-2.6m-25 28.6c.4.3.2.6-.2.7-.7.2-1.1.7-1.7.9-.4.1-.8.2-1.2-.1v-.1c.9-.8 2-1.2 3.1-1.4m28-24.8c1.3.5 2.4 1.3 3.6 2.1-1.5-.3-2.6-1.3-3.8-2.1.1-.1.1-.1.2 0m-5.1 11.6c-.2-.2-.4-.2-.6-.2 1-.8 2.1-.6 3.2-.5-.2.5-.5.3-.8.1-.5.2-1.1.5-1.8.6m2.1 2.5c1-.5 2.1-.9 3.2-1.1.1 0 .1.1.1.2v.1c-1 .6-2.1.8-3.2 1-.2-.1-.2-.2-.1-.2-.1 0-.1-.1 0 0"/>
  <path fill="#FFF" d="M137.5 42.2c.3 0 .5.1.8-.1.1 0 .3-.1.4-.1.3 0 .6-.1.6.4-.4 0-.8.2-1.1.3-.5.2-.8.1-.7-.5m3.6 0c.5-.4.9-1 1.6-.2-.5.4-1 .4-1.6.5-.1-.1-.1-.2 0-.3m0 0v.3c-.4.4-.8.8-1.4 1l.2-.4 1.2-.9m80.6 1.1c0-.3.3-.4.5-.5.2 0 .6-.2.6.3 0 .3-.2.3-.4.3-.3 0-.5 0-.7-.1m-82.4-.9c-.1-.3-.4-.2-.6-.4.2-.1.5-.2.7-.2.2 0 .3.2.3.4s-.2.2-.4.2m-2.9 1.6c.4-.1.6-.5.8-.7h.2c.2.7-.3.9-.8 1 0-.2-.1-.2-.2-.3m-26.7 13v.2c-.5 0-.8.4-1.2.6 0-.3-.6 0-.3-.4.5-.1.8-.8 1.5-.4m35.1-17.7c-.5 0-.9.2-1.2 0 0 0 0-.2.1-.3.3-.2.7-.2 1.1.3m-15.1 1.9h-.2c0-.3-.6-.6-.2-1 .6.1.5.5.4 1m15.5.3c.1.2.3.2.5.2-.4.2-.8.3-1.3.4.1-.4.4-.5.8-.6M81 64.1c-.1.5-.5.4-.8.4-.1 0-.1-.1-.1-.1 0-.1 0-.1.1-.1.2-.2.5-.4.8-.4.1.1.1.1 0 .2.1 0 .1 0 0 0m21.5-48.7c-.1.5-.5.4-.8.4-.1 0-.1-.1-.1-.1s0-.1.1-.1l.8-.4c.1 0 .1.1 0 .2.1 0 .1 0 0 0m-.8.2v.2c-.1.5-.5.4-.8.4-.1 0-.1-.1-.1-.1s0-.1.1-.1l.8-.4m27.2 23.7v-.4c.5.2.4.6.4 1-.3 0-.3-.3-.4-.6m-48.7 25v.2c-.1.5-.5.4-.8.4-.1 0-.1-.1-.1-.1s0-.1.1-.1l.8-.4zM100.9 16v.2c-.1.5-.5.4-.8.4-.1 0-.1-.1-.1-.1s0-.1.1-.1l.8-.4m13.2-5.5h.6c-.2.6-.7.3-1 .4l.4-.4M79.4 64.7v.2c-.1.5-.5.4-.8.4v-.2c.2-.1.5-.3.8-.4m61.5-20.3v-.2c.3-.1.6-.3 1-.2-.3.4-.6.4-1 .4m-4 1.4c-.3.2-.6.4-1.1.4.3-.5.6-.6 1-.6.1 0 .1.1.1.2m12.7-4.4c-.4.4-.8.5-1.4.3.5-.2.8-.4 1.4-.3m-36.9-30.1v-.2c.2-.3.6-.2.9-.2-.2.5-.6.4-.9.4"/>
  <path fill="#FFF" d="M100.1 16.4v.2c-.1.5-.5.4-.8.4v-.2l.8-.4m-10.2 5.9v-.2l.8-.3c.1.6-.3.5-.8.5m59.7 17.9V40l1-.4.3.3-1.3.3m-20.9 5.1c-.2-.1-.4-.1-.3-.4.1-.2.3-.3.5-.3v.6l-.2.1zm-26.2-29.9v-.2l.8-.4c.1 0 .1.1.1.1l-.1.1c0 .5-.4.4-.8.4M88.7 57.6c.5.1.4.5.4.8-.1.1-.1.1-.2 0l-.2-.4c-.1-.1-.1-.3 0-.4M85 62.4l.3-.3c.2 0 .4-.1.6-.1 0 .6-.4.5-.9.4M52.2 77.9h.4c-.1.5-.5.4-.8.4-.1 0-.1-.1-.1-.1s0-.1.1-.1c.1-.1.3-.1.4-.2"/>
  <path fill="#FFF" d="M145.9 42.6c-.2.4-.5.4-.9.3.3-.2.5-.3.9-.3m-44.2-23.2c.1-.4.5-.4.8-.4.1-.1.2-.1.2 0-.2.3-.5.3-.8.4 0 .1-.1.1-.2 0m3.3-1.2h-.4c.1-.4.5-.4.8-.4.1-.1.2-.1.2 0l-.6.4m-1.7-3.2v-.2c.1-.1.3-.2.4-.3h.4c-.1.6-.5.4-.8.5m39.2 25.1c-.2-.2-.6-.3-.4-.6.1-.2.5-.2.6.2-.2.1 0 .4-.2.4M85 46.6v-.4c.5.1.4.5.3.9l-.3-.3c.1-.1 0-.1 0-.2m51.9-.8c0-.1 0-.1-.1-.2.3-.2.5-.3.8-.3v.2c-.1.3-.5 0-.7.3m82.7.5c-.2.4-.6.3-1 .3.4-.2.6-.5 1-.3m-132.9 6c.5.1.4.5.3.9-.2 0-.3-.1-.3-.3v-.1c-.1-.2-.1-.3 0-.5m26.1-7.7l.3.3c-.3 0-.7.2-.9-.3h.6m31.5-.6c-.3.2-.6.4-.9.3.2-.3.5-.3.9-.3m-34.3-.2l.3.3c-.3 0-.7.2-.9-.3h.6m-23.7 7.7v-.4c.5.1.4.5.3.8-.2 0-.3-.2-.3-.3v-.1m-3.2 11.8c-.1.5-.5.4-.9.3 0-.2.2-.3.3-.3h.6m-2 .8v-.2l.4-.3c.2-.1.3-.1.4 0-.1.6-.5.4-.8.5m27.2-20.7h.4c.2.1.4.3.6.4-.4 0-.8 0-1-.4m-16.7-1.3l.3-.3h.6c-.2.5-.6.3-.9.3m86.6-2c.6.1.8.3.8.8l-.8-.8m-92.3 9l-.3-.3v-.5c.4 0 .3.4.3.8m1.2 4.4c.5.1.4.5.4.8-.2.1-.3-.1-.4-.3v-.2c-.1 0-.1-.2 0-.3"/>
  <path fill="#FFF" d="M94.4 23.1c.1-.5.5-.4.8-.4.1-.1.2-.1.2 0-.1.1-.3.2-.4.3-.1.3-.3.2-.6.1m25.2 23.6h.4c.2.1.4.3.6.4-.4 0-.8 0-1-.4m-17.9-27.3h.2l-.6.4h-.4c.1-.4.5-.4.8-.4m39 11.8h-.2l-.6-.2v-.2c.3 0 .7 0 .8.4m1.8 8.9c.1-.2 0-.4.2-.4-.1.2.4.4.1.6-.2.2-.3 0-.3-.2M102.8 19h-.2c.2-.4.5-.4.8-.4l-.3.4h-.3m-10.4 5.3v.2l-.2.1c-.2 0-.4.1-.6.1.1-.4.5-.4.8-.4m13.2-6.5h-.2c.2-.4.5-.4.8-.4-.1.1-.2.2-.3.4h-.3m3.5-1.2h-.4c.2-.4.5-.4.8-.4l-.3.4c0-.1-.1-.1-.1 0"/>
  <path fill="#FFF" d="M95.5 22.7h-.2c.1-.4.5-.4.8-.4v.2l-.6.2m40.9 4.9c-.2 0-.3.1-.3.1-.1-.1-.3 0-.3-.3 0 0 .2-.1.3 0 0 0 .1.1.3.2"/>
  <path fill="#9EC66D" d="M124.1 85.6c0-.1 0-.1-.1-.2l.2-.2.7.4h-.8"/>
  <path fill="#FFF" d="M59.1 50.9c.2-.1.4-.2.4.2-.2 0-.3.2-.5 0 0 0 0-.1.1-.2m27-10.3h-.6c.1-.2.2-.3.4-.3.2-.1.2.1.2.3M107.9 52c0 .1.1.1.1.1-.1-.1.1-.2.1-.3-.1.1-.2.1-.2.2m-6.4 5.4l6.8-2.7.1.3-6.9 2.9c-.1-.2-.1-.3 0-.5m0 0v.5c-.4 0-.8 0-1.1.4-.4.6-1.1.8-1.8 1 0-.4.3-.5.5-.8.1-.2.3-.2.4-.3-.1 0-.2.2-.4.1l-.8-.3c1-.9 2.1-.6 3.2-.6m14-4.5c-.8-.5.5-.7.1-1.1.8-.2 1.3-.9 2.2-.8.2 0 .6-.1.6.3 0 .3-.4.2-.5.4-.7.6-1.5 1-2.4 1.2m-25.2 1.8l2.1 3.4c-.4-.1-.7-.3-.9-.8-.4-.9-1-1.6-1.2-2.6m19.7 2.2c-.2.1-.2 0-.3-.1-.2.1-.4.2-.5 0-.1-.2.1-.3.2-.4.8-.3 1.5-.7 2.3-1 .6-.2.2.2.2.3-.3.4-.8.4-1.2.7-.3.1-.6.2-.7.5"/>
  <path fill="#FFF" d="M115.5 53c.7-.6 1.5-1 2.4-1.2l.2.4c-.8.4-1.7.5-2.4 1.1-.3.1-.2-.2-.2-.3m-3.6-1.7c.5.6.9.1 1.4-.2-.4.8-1.4 1.1-2.1.7v-.1s.1 0 .1-.1c.1-.1.3-.3.6-.3m-5.2 2.4c.5-.4.9-1 1.7-.9-.4.7-1 .9-1.7.9m6-.3c-.9.2-1.6.8-2.7.8 1-.6 1.8-1 2.7-1 .1 0 .1.1 0 .2.1-.1 0 0 0 0m-3.3 0c-.3.5-.8.9-1.5.8.3-.8 1-.6 1.5-.8m27-9.4l.3.3c-.5.3-1.1.5-1.8.6.4-.7 1-.7 1.5-.9"/>
  <path fill="#FFF" d="M111.9 51.3c-.2.2-.4.3-.6.4-.1-.2-.4-.1-.6-.2l2-1c.1.6-.6.5-.8.8m2.6 1.9c-.5.6-1.2.6-1.9.8-.1 0-.3 0-.2-.2 0-.1.2-.2.3-.2.3-.2.6-.3.9-.5.3-.1.6-.2.9.1m-25.7-2.1c.3.6.5 1.2.8 1.9.1.1.1.2 0 .2-.6-.6-.9-1.3-.8-2.1m20.9 4.1c-.4.5-.7.7-1.2.5-.1 0-.1-.2-.1-.2.4-.4.8-.3 1.3-.3m-11.4 3.3c0 .3-.3.3-.5.4-.1 0-.4.1-.4-.1 0-.3.2-.4.4-.5.2 0 .4-.1.5.2m11.2-2.1c-.2.3-.1.4.3.4l-.1.2c-.6-.1-1 .5-1.6.4l1.4-1m1.2 0c.4-.3.7-.5 1.2-.6h.5c-.5.3-.9.6-1.5.6-.1.1-.1.1-.2 0m6.1-5.4l-1.2.3c.4-.7.5-.7 1.2-.3"/>
  <path fill="#7FB942" d="M103.6 138.4c.2-.1.3-.2.4-.2.1.1.2.1.3.2.1.8-.5.3-.8.5.1-.2.1-.3.1-.5"/>
  <path fill="#FFF" d="M113.7 53.3l-1 .2v-.4c.3 0 .4-.3.6-.4l.2.2c.1.1.3.2.2.4m0 0l-.4-.4c.3-.1.7-.1 1-.4.2.1.2.4.2.6l-.8.2m-6.6 2.8c.3-.1.6.2.9.2-.6.3-.6.3-.9-.2m-8 2.1c.3-.2.5-.5 1.1-.5-.2.5-.7.5-1 .7l-.1-.2m-10.8-8.3c.3.4.3.8.4 1.2-.6-.2-.3-.8-.4-1.2m16.9 9c.2-.4.4-.7.9-.7-.1.5-.3.8-.9.7M87.9 48.7c.3.4.3.8.4 1.2-.5-.3-.3-.8-.4-1.2m.4 7.7l-.3-.3v-.6c.5.2.3.6.3.9M53.8 77.5c.1-.1.2-.2.2-.4h.6c0 .5-.4.4-.8.4m63.8-31.3c.3 0 .6.1.8.4-.3 0-.7.2-.8-.4m-16.3 10c-.3.2-.5.3-1 .2.2-.2.4-.4.7-.4.3-.1.4 0 .3.2M53 77.9c.2-.3.5-.4.8-.4-.1.6-.5.4-.8.4M88.4 57l-.1-.6c.6.1.4.5.4.8l-.3-.2m26.7-11.5h.6l.3.3c-.4.1-.8.2-.9-.3m-.6-.4l.3.3c-.3 0-.7.2-.9-.3h.6"/>
  <path fill="#FFF" d="M126 48.8c.9-.5 1.7-1.2 2.8-1.2h.3c.3-1.4.8 0 1.2-.1-1.4.7-2.7 1.4-4.3 1.3m-10.3 4.5c.6-.8 1.6-.9 2.4-1.1-.6.6-1.5.7-2.4 1.1m-2.4-.4v-.2c.3 0 .6-.3 1-.2-.2.5-.6.5-1 .4m-.6-2.4c-.5.7-1.3.8-2 1-.9.2-1.8.4-2.6.6-.9.5-1.8 1-2.8 1-.9.1-1.6.6-2.3 1-.3.2-.7.3-1 .4-.7-.2-1.3.3-2 .5-.4.3-.8.5-1.1.9-.2.3-.5.3-.8.4-1.1.7-2.6.7-3.7 1.4-.5.3-1.2.4-1.9.4-1-.9-1.4-2.2-2.1-3.4l-.4-.8c-.3-.2-.2-.7-.5-1-.3-.6-.6-1.2-.7-1.8-.3-.3-.2-.8-.4-1.2-.4-.3-.2-.8-.4-1.2-.7-1.9-.8-3.8-1.2-5.9 1.1.4 2.3.2 3.2 1 .5.4 1.2.5 1.9.4 2.5-.3 4.8.5 7.1 1.1.9.2 1.8.6 2.8.5 2.6-.2 4.8 1.1 7.2 1.6 1.2.3 2.5.5 3.7 1.1.7.4.7 1.5 0 2m-8.9 24.2c1.5 1 2.9 2 4.5 3.1h-1.4c-6.8-.4-13.5-.6-20.2-.4-6.2.2-12.3.9-18.3 2.4-2.9.7-5.7 1.5-8.5 2.6-.3.1-.6.2-1 .3.1-.5.4-.5.6-.6 7-3.4 14-6.8 20.9-10.2 3.7-1.8 7.4-3.7 11.1-5.6.9-.5 1.5-.3 2.3.3 3.7 2.1 6.4 5.6 10 8.1m54.7-37.1c-.2-.3-.4-.3-.6-.3-.6.1-1-.2-1.3-.7-.9-1.3-2.1-2.3-3.2-3.4-.5-.5-1-1.2-1.7-1.5l-3-2.5c-.6-.2-1.1.1-1.7-.1-.2 0-.4.1-.6-.2-.4-.3-.8-.5-1.3-.8-.8-.5-1.5-1.2-2.5-1.5l-2.2-1.2c-.2-.3-.6-.3-.8-.5-.3-.2-.6-.3-.9-.4h-.1c-.2-.2-.5-.3-.8-.4-.2 0-.3 0-.4-.2-.3-.4-.7 0-1-.2-.7-.5-1.5-.2-2.3-.4-1.4-.6-1.4-.6-1.4-2.2-.8-.3-.8.5-1.3.8-.1.3-.2.6-.4.8l-.1.2c-.3.2-.3.6-.5.9-.7.1-1.3.2-.8 1.1.1.3.1.7-.1 1.1l-.2.6c-.3 1.5-.5 3-.8 4.5-.2.3-.1.6-.1.9v6.7c.1.5.3.9.5 1.3v.2c.2.4.3.8.3 1.2.1.4.2.7.3 1.1.4 1.4.1 2.1-1.1 2.2-.1.2-.1.4 0 .6.3.1.6-.4 1 0-.8.7-1.6 1.4-2.5 1.8-.2.1-.8.4-1-.2-.1-.5-.6-.2-.8-.3-.1 0-.2 0-.3.1-.3.5-1.3.2-1.2 1.1-.4-.3-1.2.1-1.3-.7h-2.2c-.4-.1-.8-.3-1.1-.5-.3 0-.7 0-1-.1-.3-.1-.7-.1-.9-.4-.5-.3-1-.3-1.6-.4-.3-.1-.6-.1-.9-.3-.1 0-.3-.1-.4-.1-.3 0-.6-.2-.9-.3-.2 0-.5 0-.7-.1-.3 0-.6-.1-.9-.3-.1 0-.3-.1-.4-.1-.3-.1-.6-.1-.9-.3-.2 0-.5 0-.7-.1-.3-.1-.7 0-.9-.2h-.2c-.4-.1-.8-.3-1.1-.5-.5 0-.9.1-1.4-.1-.4 0-.7-.2-1-.3-.6 0-1.2.1-1.8-.1-.4 0-.7-.2-1.1-.3-.6 0-1.2.1-1.8-.1-.4 0-.7-.3-1.1-.3-2.5.3-4.9-.5-7.3-.4-.4.2-.7.3-1.1.3-.8.1-1.7 0-2.5.1-.9 0-1.8.3-2.7-.1-.2-.5 0-1-.2-1.5-.2-.2-.4-.2-.6 0-.6.4-.8.9-.8 1.7 0 1 .4 1.9.4 2.8-.1.4 0 .7 0 1.1.2.3.3.6.3 1 .1.3.1.7.1 1 .1.3.4.6.3.9 0 .1.1.3.1.4.2.3.3.6.3.9.1.2.1.5.1.7.2.3.3.5.3.9 0 .1.1.3.1.4.2.2.3.5.3.8 0 .1.1.2.1.4.2.2.3.4.3.7 0 .1.1.2.1.2.2.2.2.5.2.7 0 .1.1.2.1.4.1.2.2.4.3.7 0 .1.1.2.1.2.2.2.2.5.3.8 0 .1.1.2.1.4.2.2.3.6.4.8.1.3.1.7.3.9.1.2.1.4 0 .6-.3.7-.8 1.1-1.6 1.1-.7 0-1.2.3-1.7.7 0 0-.1.1-.2.1-.2.3-.6.3-1 .4-.6 0-1 .5-1.5.8l-.4.2c-.2.2-.6.2-.9.2l-.4.1c-.2.2-.5.3-.8.4-.2.2-.5.3-.8.4-.2.3-.6.2-.8.4-.2.3-.6.3-.8.4-.7.1-.8.9-1.4 1.1-.3.2-.6.1-.9.1-.3.1-.5.3-.8.3-.1 0-.2.1-.2.1-.2.2-.5.2-.8.3-.2.2-.6.2-.8.4-.2.3-.5.3-.8.4-.5.3-1 .7-1.5.9-.2.2-.6.2-.9.3-.1 0-.2.1-.4.1-.3.2-.6.2-.9.3-.9.4-1.8.9-2.8 1.4-3.9 2-7.8 3.9-11.8 5.9-.2.2-.4.4-.7.5-.1 0-.2.1-.2.1-.2.2-.5.2-.7.2-.1 0-.2.1-.4.1-.2.2-.5.3-.8.4-.2.3-.5.3-.8.4-.4.2-.8.5-1.2.8-.6.3-1 .7-1.7.9-.3.2-.6.2-.9.3-.3.2-.6.2-.8.4-.2.3-.5.3-.7.5-.2.3-.5.3-.8.4L42 83c-.2.3-.5.3-.8.4-.3.2-.6.2-.8.4-.1.4-.5.3-.8.4-.4.2-.9.5-1.3.8-.2.3-.5.3-.8.4-.3.2-.6.2-.8.4-.2.3-.5.4-.8.4-.9.6-1.9 1-2.8 1.6-.1.3-.5.3-.7.5-.2.2-.5.3-.8.4-.4.2-.8.6-1.3.8-.2.3-.5.3-.7.5-.2.2-.5.3-.8.4-.8.5-1.6 1-2.5 1.5-.1.2-.4.3-.6.4-.1 0-.1.1-.2.1-.2.2-.5.3-.8.4-.4.3-.8.5-1.2.8-.2.3-.5.3-.8.4-.4.2-.8.5-1.2.8-.2.3-.5.4-.8.4-.4.2-.9.5-1.3.8-.1.4-.5.3-.8.4-1.3 1.1-2.9 1.8-4.4 2.8-.4.2-.8.6-1.2.8-.4.2-.8.6-1.2.8-.4.2-.8.6-1.2.8-.4.2-.8.6-1.2.8-.4.2-.8.6-1.2.8-.9.7-1.9 1.3-2.9 2.1-.5.3-.9.7-1.3 1.1-.3.3-.3.6 0 .9.1.5.2 1.1-.2 1.5-.6.7-.1.7.4.7.3 0 .6-.2.8-.3 1.8-1 3.5-2.1 5.3-3.1 3.9-2.2 7.9-4.3 11.8-6.4 5.1-2.7 10.3-5.5 15.4-8.1 3.6-1.8 7.2-3.6 10.8-5.3 2.2-1.1 4.3-2.1 6.6-3 .3-.1.7-.2 1 0 .2.4.5.8.7 1.2 1.1 2.2 2.6 4 4.5 5.6 2.6 2.2 5.5 4 8.1 6.3 1.9 1.7 4.3 2.4 6.4 3.7 1.4.9 3.2 1.1 4.8 1.8.5.2 1.1.4 1.6.5.5.2 1-.1 1.4.2.6.3 1.2 1 1.9.8.8-.2 1.4-.2 1.5.8 0 .2.1.3.2.2.8-.2 1.3.4 2 .4 1.2 0 2.4-.1 3.5.4.4.2.7.4.7.8.1.5-.3.6-.6.7-1.9.6-3.8 1.1-5.8 1.7-4 1.2-8 2.6-12 4-4.4 1.6-8.8 3.4-13 5.4-3.1 1.4-6.2 2.9-9.2 4.6-3.7 2-7.4 4.1-10.9 6.4-.6.4-1.2 1-2 1-1.1 0-1.9.6-2.5 1.4-.6.9-1.2 1.8-1.9 2.6-.8.9-1.5 1.9-1.3 3.2 0 .4.1.7.2 1.1.3 1 .7 1.9 1.6 2.4 4.1 2.1 8.6 3.2 13.2 3.5.5.1 1-.1 1.4.1l1.8.1c.5.1 1-.1 1.4.1l1.8.1c.6.1 1.2-.1 1.8.1l2.4.1c2.2.1 4.3.1 6.5 0l1.8-.1c.4-.2.9 0 1.4-.1l2.2-.1c.4-.2 1 0 1.4-.1.5 0 1.1 0 1.6-.1.4-.2.8 0 1.2-.1.9-.1 1.7-.1 2.6-.2 2.5-.2 5-.5 7.5-.9 3.3-.5 6.6-1.1 9.8-2 2.3-.6 4.7-1.1 6.9-2 .1-.1.1-.2.2-.3 0-.1 0-.2-.1-.3h-.1l-7.1 1.7c-.3.1-.7.2-1.2.1.7-.5 1.3-.5 1.9-.7 1.9-.5 3.9-1.1 5.9-1.4.3-.1.7-.3.9.1 0 .1-.1.1-.1.2.1.1.2.1.4.1l.1-.1-.1-1c0-.1-.1-.1-.2-.1-.3.1-.5-.1-.5-.4 0-.7-.3-1.4-.2-2.2.1-.8-.1-1.5-.5-2.1-.2-.1-.3-.1-.4 0-.5 0-.9.3-1.4.2-.3.2-.7 0-1 .2-.9.2-1.8.5-2.8.6-1.4.2-2.8.8-4.3.4-.5.6-1.3.1-1.9.4h-.4c-.2.2-.4 0-.6.2-.8.3-1.7-.1-2.5 0-.6.2-1.2 0-1.7.2-.4.3-.7.6-1.2.2-.5-.1-.9-.2-1.4.1-.4.2-.8.1-1.2.1-2.6.1-5.2-.1-7.8.1-.3.1-.6.4-1 .2-.3-.2-.7.1-1-.2h-1c-1.1-.2-2.2.1-3.2-.2h-1.2c-1.1-.2-2.2.1-3.3-.2h-1c-.8-.2-1.5.1-2.3-.2h-.8c-.5-.2-1 0-1.5-.2h-.5c-.4-.2-.9.1-1.3-.2-1.1.1-2.1-.2-3.2-.4-3.3-.6-6.5-1.6-9.5-3.1-.2-.1-.6-.2-.6-.5s.3-.4.7-.5c1.7-.4 3.1-1.6 4.6-2.4 3.2-1.6 6.2-3.4 9.4-4.9 3.5-1.6 7.2-3 10.8-4.5 6.3-2.7 12.6-5.5 19.2-7.3 2.3-.7 4.6-1.4 6.9-2.2 1.6-.6 3.3-.8 5-1.2 1.9-.4 1.9-.4 1.9-2.3-.2-.3 0-.7-.1-1.1 0-.3 0-.6-.1-1-.3-.4.3-1.3-.6-1.5-3.5-.2-6.8-.9-10.2-1.6-8.5-1.8-16.4-4.9-23.5-9.9-2.1-1.5-4.1-3.3-6-5-.5-.5-.4-.7.2-.9.5-.2 1.1-.1 1.6-.2 1.8-.2 3.6-.8 5.5-.7.8.1 1.7.1 2.4-.3.5-.3 1-.2 1.5-.1.4-.2.8 0 1.2-.2 1.6-.1 3-.6 4.6-.7 1.1-.2 2.2.1 3.3-.2l.1-.1h.1c.4-.2.9.2 1.3-.2.3-.2.6 0 .8.2.3.4.5-.1.8 0 .2-.1.4-.2.4-.4l.2-.2c.6-.2 1.2 0 1.9-.2 1 0 2 0 3-.1.9-.2 1.9.1 2.9-.2h1.8c.5-.2 1.1 0 1.7-.2.6-.2 1.1.1 1.6.3.5-.1 1.1-.1 1.6 0l1.3.1c.6.2 1.1-.1 1.7.2h.7c.4-.2.8 0 1.3-.2.3 0 .2.4.4.4 1.2.2 2.3-.1 3.5.2 1.3.1 2.7.3 4 .7.3.1.6-.2.9-.1.7.2 1.5.6 2.3.4 1.1-.3 1.9.2 2.8.5 1.8.7 3.5 1.8 5.4 2.2.2.3.5.3.8.2.2 0 .3-.1.2-.3-.2-.3-.6-.5-.8-.7-.2-.1-.7 0-.4-.5.2-.1.2-.2 0-.4-1.4-.4-2.6-1.2-3.8-1.8-.9-.4-1.7-1.2-2.5-1.5-1.1-.4-1.6-1.4-2.7-1.7-.1 0-.2-.2-.3-.3-.7-1.1-1.8-1.6-3-1.8-.7-.1-1-.5-1.4-.9-.6-.7-1.2-1.4-2.1-1.8-.3.1-.5-.1-.8-.3-.7-.9-1.4-1.9-2.6-2.3-.2-.1-.4-.3-.6-.5-.5-.8-1.3-1.3-2-2-1.4-1.3-2.9-2.4-4.1-4-.4-.5-.5-.9.2-1.2.9-.4 1.8-.9 2.7-1.3.2-.5.5-.1.8-.1 1.8-.8 3.2-2.4 5.3-2.6.8-.1 1.8-.5 2.2-1.5.1-.2-.1-.3-.1-.4.5-.2.8-.6 1.2-.8.8-.1 1.5-.8 2.3-.7.1.1.3.1.4.1.1 0 .2 0 .2-.1.6-.2 1.2-.5 1.8-.7.3-.2.6.3.8.1 1.6-1.1 3.4-1.9 5.3-2.6.8-.3 1.6-.3 2.4.3 1.2.8 2.4 1.6 3.6 2.2 2 1 3.8 2.3 5.6 3.6.9.6 1.7 1.5 2.5 2.2 1.2 1.2 2.6 2.2 3.5 3.7.8 1.4 1.9 2.5 2.8 3.8.2.3.5.5.8.3 1.1-.8 1.5 0 1.9.7.1.1.2.1.4.2.1.3.2.7.5.9.6.4 1 1.1 1.4 1.7.4.5.8 1 1.7 1.2-.8-.9-1-1.8-1.6-2.4-.8-.8-1.2-1.9-1.8-2.8-.2-.4.1-.9-.2-1.3-.6-.2-1-.6-1.1-1.2 0-.6-.3-1.1-.7-1.5-.1-.2-.2-.4-.2-.6 0-.5-.1-1-.3-1.4-1.3-2.4-2.7-4.8-3.8-7.3-1-2.2-1.9-4.5-2.7-6.8-.2-.6-.4-1.4.4-1.8-.3-.2-1 .2-1-.3 0-.4.6-.4 1-.6.5-.2 1-.3 1.4-.5 1-.5 2.1-.6 2.8-1.5.1-.1.3-.2.2-.4l-2.4.2c-.2.4-.5.7-.9.9-.4.2-.8.3-1.2.5.4-.1.7-.3 1.1-.4.3-.2.9-.3.8-.9-.6 0-1.2.1-1.6.4-.6.5-.9.2-1.4-.2.4-.4 1-.4 1.4-.7-.1-.4-.4-.3-.6-.2-1.6.6-1.9.6-2.1-.4-.5-1.8-1.3-3.5-1-5.4.2-1.4 0-2.8 0-4.2 0-1.8-.1-3.7.4-5.5.1-.6.3-.9.9-.7 1.5.3 3 .7 4.5 1 .1.1.1.3.1.5-.6 1.1.2 1.7.9 2.4.4.3.9.4 1.2.7.3.1.6.2.9.5 1.2.6 2.3 1.4 3.6 2 1.5 1.8 3.5 3 5 4.8.1.1.2.1.3.1.6.2.9.7 1 1.3 0 .2 0 .3.3.3 1 .5 1.5 1.5 2.4 2.1.2.1.3.3.4.5.5 1.4 1.6 2.4 2.4 3.6 1.7-1.4 3.1-3 4.6-4.6.1-.1.1-.2.1-.4-.1-1.3-.9-2.4-1.7-3.4"/>
  <path fill="#FFF" d="M85.9 50.1v-.6c.5.1.4.5.3.9l-.3-.3m25.2-5.9c.3 0 .6 0 .9.3-.4.1-.8.3-.9-.3m-4.7-1.2l.3.3c-.3 0-.7.2-.9-.3h.6m-3.5-.4h.6l.3.3c-.4.1-.8.2-.9-.3M75.3 66.9c.1-.1.2-.2.2-.3h.6c-.1.5-.5.4-.8.3m25.4-24.7l.3.3c-.3 0-.7.2-.9-.3h.6M74.8 67c.2 0 .4 0 .6-.1-.1.6-.5.4-.8.4l.2-.3m-1.9 1.1c.2-.3.5-.4.8-.4-.1.6-.5.4-.8.4m-2.5 1.2c.2-.3.5-.4.9-.3-.1.5-.5.4-.9.3m-.9.1h.6c-.1.5-.5.4-.8.3l.2-.3m18.1-14.5c0-.2 0-.4-.1-.6.6.1.4.5.4.8-.1 0-.2-.1-.3-.2m1.9-1.7V53c.3.3.3.6.4 1-.3-.2-.3-.5-.4-.8m11.8 3c-.1-.1-.2-.2-.3-.2.2-.2.5-.3.7-.1.1.1-.2.2-.4.3m-3.3.2c.2-.2.5-.4.8-.4-.1.4-.4.4-.8.4"/>
  <path fill="#F2F7EC" d="M66.6 144c.4-.2.7-.3 1 0-.3.3-.6.2-1 0"/>
  <path fill="#FFF" d="M176.8 30.8c0-.3.1-.6.4-.8 0 .3.1.7-.4.8M133.4 6.4c.2-.3.5-.4.9-.3-.2.5-.6.3-.9.3m-27.8 7.4l.6-.1c-.1.6-.5.4-.8.4l.2-.3m.6-.1l.3-.3h.6c-.2.5-.6.3-.9.3m-39 29.1l-.4.4c-.2-.1-.3-.2-.2-.4 0-.1 0-.2.2-.2s.3 0 .4.2m27.2-19.7l-.2.4-.6.1c.1-.6.5-.5.8-.5m3.7-2c-.2.4-.5.4-.8.4 0-.6.5-.4.8-.4m1.6-.8c-.2.4-.5.4-.8.4.1-.6.5-.4.8-.4m.9-.4c-.2.3-.5.4-.8.4 0-.6.4-.4.8-.4m-34 22.9c.1.1.1.3.2.4l-.4.4c-.2-.1-.3-.2-.2-.4 0-.2.2-.4.4-.4"/>
  <path fill="#FFF" d="M66.2 43.2l.2.4-.4.4c-.2-.1-.3-.2-.2-.4 0-.2.2-.4.4-.4m-.4.4c.1.1.1.3.2.4l-.4.4c-.2-.1-.3-.2-.2-.4 0-.2.2-.4.4-.4"/>
  <path fill="#FFF" d="M65.4 44l.2.4-.4.4c-.2-.1-.3-.2-.2-.4 0-.2.2-.4.4-.4"/>
  <path fill="#FFF" d="M65 44.4c.1.1.1.3.2.4l-.4.4c-.2-.1-.3-.2-.2-.4 0-.2.1-.4.4-.4m-.4.4l.2.4-.4.4c-.2-.1-.3-.2-.2-.4 0-.2.2-.4.4-.4m-.4.4c.1.1.1.3.2.4l-.4.5c-.2-.1-.3-.2-.2-.4 0-.3.2-.4.4-.5m-.4.4l.2.4-.4.4c-.2-.1-.3-.2-.2-.4.1-.2.2-.3.4-.4m-.4.4l.2.4-.4.4c-.2-.1-.3-.2-.2-.4.1-.2.2-.3.4-.4m-.4.5c.1.1.1.3.2.4l-.4.4c-.2-.1-.3-.2-.2-.4.1-.2.2-.4.4-.4m-.4.4l.2.4c-.1.1-.2.2-.3.2-.3 0-.1-.3-.2-.5.2 0 .2-.1.3-.1m48.1 9.5h.2c-.1.4-.5.4-.8.5 0-.5.4-.4.6-.5m-2.6-4.3h-.6c.5-.3.8-.6 1.3-.5-.2.2-.5.4-.7.5m-5.3 1.9c.1 0 .3.1.2.2-.3.2-.7.5-1.2.3l1-.5"/>
  <path d="M134.2 123l15.5-16.9 4.9-.4 3.7 41.4-10.9 1-1.9-21.3-9.9 10.9-11.8-8.9 1.9 21.2-10.9 1-3.7-41.4 4.9-.4 18.2 13.8zm28.7-18l25.7-2.3.8 9-14.9 1.3.6 6.7 13.1-1.2.8 9.2-13.1 1.2.7 7.6 14.9-1.3.8 8.9-25.7 2.3-3.7-41.4zm33.6-3l15.4-1.4c11.4-1 21.5 7.4 22.6 18.9 1 11.4-7.4 21.5-18.9 22.6l-15.4 1.4-3.7-41.5zm13.5 29.7l4.6-.4c5.4-.5 9.4-5.3 9-10.7-.5-5.4-5.3-9.4-10.7-8.9l-4.6.4 1.7 19.6zm30-33.6l10.9-1 3.7 41.4-10.9 1-3.7-41.4zm20.1 39.9l15.6-43.1 4.9-.4 23.2 39.7-10.9 1-3-5.2-17 1.5-2 5.6-10.8.9zm16.4-16.1l8.5-.8-5-8.7-3.5 9.5zm44.2-18.2c-.2-1.7-1.7-3-3.4-2.9-1.7.2-3 1.7-2.8 3.4s1.7 3 3.4 2.8c4-.4 7.8 1.2 10.4 4 2 2.1 3.2 4.7 3.5 7.8.6 7.1-4.6 13.2-11.6 13.8-7.1.6-13.3-4.4-13.9-11.7l9.7-.9c.2 1.8 1.7 3 3.4 2.9 1.7-.2 3-1.7 2.9-3.4-.2-1.7-1.7-3-3.4-2.9-7.1.6-13.2-4.5-13.8-11.6-.6-7.1 4.5-13.3 11.6-13.9 7.1-.6 13.3 4.5 13.9 11.6l-9.9 1z" fill="#EC008C"/>
</svg>
