<?xml version="1.0" encoding="utf-8"?>
<!-- Generator: Adobe Illustrator 19.0.0, SVG Export Plug-In . SVG Version: 6.00 Build 0)  -->
<!DOCTYPE svg PUBLIC "-//W3C//DTD SVG 1.1//EN" "http://www.w3.org/Graphics/SVG/1.1/DTD/svg11.dtd">
<svg version="1.1" id="Layer_1" xmlns="http://www.w3.org/2000/svg" xmlns:xlink="http://www.w3.org/1999/xlink" x="0px" y="0px"
	 viewBox="-54 56 150 150" style="enable-background:new -54 56 150 150;" xml:space="preserve">
<style type="text/css">
	.st0{fill:#AEAEAE;}
</style>
<path class="st0" d="M-9.4,112.2c10.9,22.1,27.1,38.4,49.2,49.2c3.2-3.3,6.6-6.7,10-10c3.6-3.6,7.8-5.5,12.8-3.7
	c1.8,0.7,3.6,1.9,5,3.3c6.9,6.7,13.7,13.5,20.4,20.4c5.4,5.4,5.3,11.7,0.1,17.4c-11.3,12.4-25,15.3-40.9,11.2
	c-15.8-4.1-29.7-11.6-42.4-21.6c-16.8-13.2-31.5-28.6-43.2-46.7c-7.8-12-12.3-25-11.6-39.5c0.6-11.8,5.3-21.4,14.2-29
	c5.3-4.5,11.4-4.3,16.4,0.7L1,84.3c5.6,5.6,5.6,12.1-0.1,17.8C-2.5,105.5-6,108.9-9.4,112.2z"/>
</svg>
