
<svg version="1.1" id="Layer_1" xmlns="http://www.w3.org/2000/svg" xmlns:xlink="http://www.w3.org/1999/xlink" x="0px" y="0px"
	 viewBox="-54 56 150 150" style="enable-background:new -54 56 150 150;" xml:space="preserve">
<style type="text/css">
	.st0{fill:#FFFFFF;}
	.st1{fill:#AEAEAE;}
</style>
<g id="qBlZPk_1_">
	<g>
		<path class="st0" d="M23.3,197.9c5.9-9.9,11.1-17.5,15.2-25.7c9-17.7,19.1-35.1,25.8-53.7c7.7-21.5-2.5-42.7-21.7-52
			c-18.8-9-41-3.4-53.2,13.8C-20.6,94.6-21,110.5-14,125.5C-2.7,149.6,10.3,172.8,23.3,197.9z"/>
		<g>
			<path class="st1" d="M43.8,62.6C23.4,52.8-1,59.1-14.1,77.6c-10.3,14.6-11.7,32-3.8,48.9c7.9,16.9,16.6,33.1,25.7,50.3
				c3.8,7.2,7.8,14.6,11.7,22.1l3.2,6.1l3.5-5.9c1.9-3.2,3.8-6.2,5.5-9c3.6-5.8,7-11.2,9.8-16.8c2.1-4.1,4.3-8.3,6.4-12.4
				c7-13.4,14.3-27.2,19.5-41.7C75.6,96.9,65.6,73,43.8,62.6z M48.6,111.2c-3.5,15.4-11.2,28.6-19.4,42.6c-1,1.8-2.1,3.6-3.1,5.3
				c-0.9,1.5-1.8,3-3,4.9c-2-4-3.9-7.9-5.8-11.8C10.8,139.2,4.7,126.9-0.2,114c-2.7-7.2-2.5-14.7,0.7-21.1
				c3.2-6.4,8.8-11.1,15.9-13.3c2.5-0.8,5-1.1,7.6-1.1c6.3,0,12.4,2.3,17.1,6.8C48,91.7,50.8,101.5,48.6,111.2z"/>
			<path class="st1" d="M23.6,89.5C15.5,89.6,9.5,95.9,9.5,104c0,8,6.3,14.4,14.2,14.4c0,0,0.1,0,0.1,0c3.8,0,7.6-1.6,10.3-4.5
				c2.8-2.8,4.3-6.6,4.1-10.4C38,95.7,31.4,89.4,23.6,89.5z"/>
		</g>
	</g>
</g>
</svg>
