
<svg version="1.1" id="Icons" xmlns="http://www.w3.org/2000/svg" xmlns:xlink="http://www.w3.org/1999/xlink" x="0px" y="0px"
	 viewBox="-79 81 100 100" style="enable-background:new -79 81 100 100;" xml:space="preserve">
<style type="text/css">
	.st0{fill:#AEAEAE;}
</style>
<path id="Twitter__x28_alt_x29_" class="st0" d="M4.7,121.6c4.9-1.3,7.9-4.1,8.6-7.4c-1.6,1.4-7,3.6-10.2,3
	c-0.3-0.7-0.6-1.4-0.8-1.9c-3.9-8.2-13.1-13.7-21.4-11.4c0.6-0.4,1.3-0.8,1.9-1.1c0.9-0.5,6.1-2.3,5-4.1c-1-1.6-7.1,2.6-8.3,3.2
	c1.5-0.9,4.1-2.5,4-4.4c-2.5,0.8-4.7,2.4-6.3,4.5C-22.3,101-22,100-22,99c-6,5.5-8.4,14.9-10.1,23.9c-2.9-2-5.5-3.5-7.7-4.2
	c-6.1-2-13.3-4-24.5-6c0.3,3.5,3.1,7.8,9.5,9.8c-1.3,0.1-3.6,0.8-5.3,1.6c1.5,3.8,4.5,6.7,11.5,7.1c-3,0.7-4.5,1.7-5.7,3.5
	c1.9,2.5,5.9,5.2,11.9,3.4c-6.3,4.1-1.3,8.8,4.1,7.1c-7.7,11.4-22.7,13.3-32.7,6.7c27.7,26.5,74,5.5,76.1-25.1
	c5.4-0.9,8.3-3.4,9.9-5.9C11.9,121.9,7.3,122.2,4.7,121.6z"/>
</svg>
