<svg xmlns="http://www.w3.org/2000/svg" viewBox="0 0 394.606 195">
  <path fill="#FFF" d="M96.88 102.272l5.167 59.04 292.56-25.594-5.167-59.04L96.88 102.27"/>
  <path fill="#FFF" d="M96.88 102.272l5.167 59.04 292.56-25.594-5.167-59.04L96.88 102.27"/>
  <path d="M134.885 148.446l-1.756-10.678-11.2.98-2.49-28.446-13.05 1.14 3.43 39.196 25.06-2.192zm32.732-2.864l-1.48-10.646-14.3 1.25-.318-3.635 12.77-1.11-.93-10.64-12.78 1.12-.31-3.53 13.86-1.21-.94-10.69-26.92 2.36 3.43 39.2 27.89-2.44zm32.59-15.782c-.58-6.63-4.504-9.522-9.8-10.565l-6.856-1.34c-1.33-.262-1.57-.51-1.64-1.31-.1-1.177.31-1.43 1.51-1.533 2.34-.205 4.37-.167 11.81.96l1.78-11.04c-6.99-1.004-10.39-1.083-13.22-.836-9.02.79-15.21 5.91-14.48 14.252.6 6.79 4.56 9.462 9.81 10.672l6.55 1.528c1.51.354 1.81.544 1.9 1.614.11 1.282-.41 1.544-1.82 1.668-2.23.195-3.27.18-12.77-1.902l-2.1 11.016c7.84 1.9 10.64 1.924 14.44 1.59 8.92-.778 15.69-6.058 14.93-14.774zm45.984-30.587l-13.04 1.142-2.2 21.15c-.24 2.285-.2 4.546-.09 5.776l-.65.06c-.11-1.23-.52-3.46-1.15-5.66l-5.84-20.45-13.43 1.18 13.65 38.3 15.99-1.39 6.79-40.09zm35.4 36.398l-1.47-10.64-14.3 1.25-.32-3.63 12.78-1.11-.93-10.64-12.78 1.12-.31-3.53 13.87-1.21-.93-10.7-26.91 2.36 3.43 39.2 27.9-2.44zm36.23-14.27c-.37.09-.86.19-1.29.23-.98.09-1.21-.11-1.72-.87l-3.01-4.42c3.07-2.47 4.78-6.18 4.34-11.15-.76-8.71-6.8-11.42-15.07-10.69l-17.13 1.5 3.43 39.2 12.66-1.12-1.16-13.26 1.42-.12 4.01 7.03c2.46 4.31 4.85 5.88 10.23 5.41 1.09-.09 2.98-.42 4.27-.69l-.96-11.01zm-14.48-13.92c.25 2.84-.38 3.75-2.12 3.91l-3.15.28-.61-7.06 3.32-.29c1.58-.13 2.35.55 2.58 3.17zm45.69-6.42l-.93-10.69-29.3 2.57.94 10.7 8.05-.7 2.49 28.5 13.11-1.14-2.49-28.5 8.16-.71zm34.27 12.79c-.58-6.63-4.5-9.52-9.8-10.56l-6.85-1.34c-1.34-.26-1.58-.5-1.65-1.31-.1-1.17.32-1.43 1.51-1.53 2.34-.2 4.37-.16 11.81.96l1.78-11.04c-6.99-1-10.39-1.08-13.22-.83-9.02.79-15.21 5.91-14.48 14.25.6 6.8 4.56 9.47 9.81 10.68l6.55 1.53c1.51.36 1.8.55 1.9 1.62.11 1.29-.41 1.55-1.83 1.67-2.23.2-3.27.18-12.77-1.9L353.95 127c7.84 1.9 10.636 1.928 14.44 1.595 8.92-.784 15.69-6.064 14.925-14.78z" fill="#79B93E"/>
  <path d="M151.963 46.406c.753-1.2 1.912-2.02 2.857-3.042.612-.66 1.284-1.263 1.93-1.89 2.426 3.658 4.24 7.605 5.52 11.8.076.257.07.6.443.538.332-.058.18-.388.182-.593.04-4.38 1.468-8.41 3.107-12.39.598-1.46 1.398-2.8 2.066-4.22.404-.86 1.03-1.6 1.56-2.39.076-.25.083-.52.322-.69.354-.36 1.016-.06 1.275-.61.64-.41.877-1.12 1.26-1.72.28-.2.3-.54.426-.82.13-.49.54-.6.94-.72.34.2.68.41 1.02.62.3.08.52.25.62.55 3.67 2.97 6.69 6.52 9.29 10.45.7 1.05.78 2.29 1.04 3.46.45 2.05.63 4.14.69 6.24.07.33.07.66 0 .99-.36 4.87-1.67 9.47-3.91 13.8-.14.27-.17.83-.54.71-.39-.12-.21-.56-.15-.95.41-2.28.75-4.57 1.11-6.85.22-.31.02-.69.15-1.01.45-4.84-1.31-8.87-4.5-12.39-.76-.84-1.52-1.69-2.36-2.62.54.06 1.09.45 1.36.04.29-.45.07-.99-.29-1.45-.67-.85-1.42-1.6-2.26-2.27-.15-.13-.33-.23-.46-.38-.11-.12-.37-.18-.22-.46.21-.38.37-.06.55 0l.57.19c.17-.54-.28-.79-.53-1.15 1.27.7 2.17 1.89 3.54 2.41.13.09.21.36.44.19.14-.11.11-.27-.01-.4-.6-1.89-2.13-3.02-3.54-4.22-.74-.62-1.27-1.43-2.1-2-.78-.55-1.07-.03-1.24.4-1.13 2.86-2.19 5.75-3.26 8.63-.1.27-.24.59-.2.86.25 1.4-.54 2.52-1.06 3.66-1.2 2.61-2.35 5.22-2.92 8.06-.1.47.1 1.02-.3 1.44-.23.38-.01.82-.15 1.21l-.06 3.05c-.21.4-.05.83-.1 1.25-.02.19.02.42-.3.37-.27-.77.09-1.83-1.01-2.23-.34-.16-.68-.16-1.03 0-.38.35-.11.81-.19 1.21-.16.88-.16 1.77 0 2.65-.11 1.39-.69 2.75-.23 4.18.06.18-.26.46-.28.71-.02.42-.5.98.3 1.2 1.01.25 2.04-.02 3.05.15.91 1.04 2.27 1.54 3.38 2.72-1.15-.27-1.76-1.2-2.75-1.25-.46-.15-.92-.17-1.38 0-.08.21-.26.21-.45.2-1.22-.17-2.45-.17-3.67 0-2.03.07-3.85.87-5.54 1.88-2.77 1.65-5.16 3.77-7.04 6.43-.16.35-.16.69 0 1.03.8.5 1.58.17 1.99-.41 1.14-1.58 2.67-2.34 4.51-2.65.64-.11 1.27-.32 1.84-.66.33-.13.7.08 1.01-.14l.62-.89c.35-.5.65-.67 1.29-.22.89.62 2.02.37 3 .21.54-.09 1.05-.09 1.58-.12.38.23.82 0 1.22.14.29.26.36.47.14.89-.26.49-.35 1.04.55 1.22.78.15 1.2 1.74.66 2.35-.45.51-.47 1.02-.17 1.54.24.41.03.66-.18.94-.24.46 0 .96-.15 1.42-.45.53-.21 1.16-.24 1.75-.01.36.31.28.53.29 1.31.09 2.61-.03 3.89-.3 1.45-.3 1.84-.18 2.73 1.03.42.59.91 1.03 1.76.92.48-.07.4-.33.42-.62.24-.3-.05-.72.21-1.02h.59c.32.14.65.18.97-.01.66-.84 1.14-1.76 1.27-2.85.06-.49.08-.91.78-.43.74.51 1.43 1.09 1.63 1.93.18.78.61 1.05 1.36.95.54-.07.95-.05.93.74-.01.44.31.92.69 1.28.81.75.99 1.96.54 2.93-.46.99-.96 1.96-1.71 2.77-.23.32-.58.56-.94.53-1.08-.1-2.13.33-3.21.21-.87-.1-1.74.17-2.59.26-1.13.12-2.27.12-3.41.28-1.05.15-2.13.217-3.2.31-1.2.104-2.4.13-3.6.32-1.02.164-2.08.27-3.1.27-1.15.003-2.27.224-3.4.284-2.17.11-4.35.28-6.5.59-1.96.28-3.93.24-5.88.57-1.07.18-2.23.3-3.37.28-.99-.017-1.99.29-2.99.353-.77-1.46-1.25-3.03-1.37-4.65-.28-3.94 1.36-7.32 3.22-10.635 1.05-1.88 2.38-3.57 3.89-5.06 3.32-3.25 7.11-5.85 11.53-7.45.94-.34 1.87-.71 2.83-1 .36-.11.71-.3.28-.81-.48-.58-.08-1.325-.23-2.02-.49-2.3-.68-4.66-1.05-6.99-.52-3.29-1.6-6.38-3.44-9.185L152 46.35M80.1 29.69c-1.225.937-2.45 1.876-3.672 2.815-.244.182-.588.18-.793.433-.388.15-.618.46-.83.79-.243.185-.59.18-.796.434-.39.16-.65.44-.83.807-1.05 1.35-2.58 2.15-3.78 3.33-1.75 1.71-3.7 3.22-5.51 4.88-.3 0-.53.25-.84.2-.2-.05-.38-.13-.49-.31.43-.87.95-1.68 1.63-2.36 2.1-2.1 4.11-4.28 6.33-6.25 2.38-2.12 4.88-4.1 7.1-6.4.34-.36.77-.52 1.24-.59l-.01.01c1.02-.9 2.15-1.66 3.27-2.44l-.02.01c1.07-.96 2.28-1.71 3.56-2.37.36-.03.68-.16.92-.46l.01-.05-.05-.02c.97-.77 2.12-1.26 3.11-2.01.16-.12.3-.27.5-.33 1.77-.48 3.22-1.63 4.84-2.43.32-.05.64-.09.87-.37.26-.17.63-.11.82-.41.25-.17.62-.11.81-.41.26-.17.62-.11.81-.4.28-.11.6-.13.81-.4.29-.09.58-.2.81-.42.36-.17.72-.35 1.1-.47.27-.1.59-.08.82-.31.07-.05.14-.09.22-.12.31-.07.56-.28.86-.35 1.12-.34 2.14-1.03 3.31-1.17.79-.09 1.46-.37 2.07-.84.3-.14.67-.08.95-.31l.16-.05c.37-.16.76-.28 1.12-.47.27-.02.59.09.8-.04 1.64-1.08 3.7-.71 5.4-1.63.94-.51 1.99-.76 3.07-.87l-.02.01c.61-.56 1.41-.19 2.09-.42.06.03.1.02.13-.04.55-.52 1.28-.13 1.89-.37.04.04.09.04.13-.01 1.13-.53 2.3-.83 3.56-.73.44.04.88.05 1.31-.04.35-.13.74-.14 1.06-.35.41-.07.84.06 1.24-.1.05.04.09.03.13-.01.47-.44 1.05-.29 1.6-.32.36-.02.73.08 1.07-.08l-.02.02c.24-.28.59-.1.87-.21.24-.01.49-.01.73-.02.23-.2.52-.12.77-.11 1.18.06 2.34-.04 3.48-.36 1.77.05 3.54.09 5.3-.03.4-.03.79-.04 1.18.01.21.09.43.08.64.01 1.95.16 3.81-.6 5.76-.46.73.05 1.45.12 2.15.33l.4-.01c.31-.2.57-.1.81.13.47.12.95.08 1.43.03 2.73-.02 5.46-.27 8.18.15.1.01.2.07.3.04 1.49-.36 2.87.14 4.28.53.36.1.81.13 1.18-.12.55-.38 1.25-.43 1.76-.22 1.37.55 2.8.22 4.18.44.27 0 .55 0 .82-.01.5-.1 1-.17 1.38.3l-.02-.01c.65.39 1.35.49 2.11.48 1.83-.03 3.66-.11 5.46.31.31.08.62.1.93 0 .77.15 1.58.02 2.31.41l-.01-.01c.33.17.74.14 1.04.4.11 0 .22.01.323.01.36.12.753.16 1.09.37.2.11.4.13.61.02 1.37-.51 1.77-.43 2.223.43l.14.21c.39.24.82.3 1.27.32h.43c.37-.09.66.17 1 .24l.33.03c1.66.23 1.93.44 2.29 1.82l-.01-.01c.52.52 1.27.09 1.832.42l-.02-.01c1.12.54 2.32.14 3.47.34.34.1.69.08 1.03.01 1.04.4 2.17.26 3.24.47l-.03-.01c.51.25 1.07.3 1.64.32.98.15 2.02-.09 2.95.44.17.1.51-.06.5.33-.01.46-.37.3-.6.3-1.62.01-3.24.01-4.86 0-.38-.23-.82 0-1.22-.14-.67-.18-1.33-.03-1.94.18-.6.21-1.147.21-1.71-.03-.41-.16-.827-.16-1.24 0-.89.11-1.73-.34-2.62-.2-.31-.22-.69-.02-1.01-.15l-3.25-.26c-.48-.16-.96-.16-1.44 0l-2.41-.4c-.414-.16-.827-.16-1.24 0-1.01-.31-2.016-.2-3.025 0-.32-.22-.69-.02-1.02-.15-.475-.01-.95-.04-1.424-.05-.314-.22-.69-.017-1.014-.15l-1.22-.05c-.31-.22-.68-.02-1.01-.15l-1.42-.06c-.31-.22-.69-.02-1.01-.15-.41-.02-.81-.04-1.22-.05-.38-.23-.82-.01-1.22-.15l-1.22-.06c-.31-.22-.69-.02-1.01-.15-.48-.13-1.02.06-1.47-.26-.06-.03-.12-.09-.18-.08-2.76.26-5.52-.17-8.21-.54-2.15-.3-4.38.16-6.46-.65-.347-.13-.74-.03-1.11-.04-2.25-.07-4.5.15-6.74-.12-1.56-.09-3.11-.09-4.66 0-.69.26-1.4.1-2.097.11-1.82.03-3.68-.21-5.46.07-2.09.324-4.22.12-6.28.63l.02-.01c-.87.286-1.76.075-2.63.12-.44.03-.87-.01-1.21.325-1.71.2-3.43.44-5.15.58-1.98.162-3.85.91-5.83 1.092-.97.62-2.14.51-3.2.8-2.28.64-4.62 1.09-6.89 1.79-1.18.37-2.4.62-3.53 1.11-.34.1-.7.15-.99.38-.76.337-1.57.54-2.32.875-.31.09-.67.03-.9.32-.32.08-.58.27-.85.43-.38.166-.76.31-1.14.48-.3.07-.633.03-.86.31-.28.11-.6.164-.813.41-.3.07-.55.254-.81.414-.13.04-.25.08-.38.12-.24.07-.51.06-.72.25-.07.05-.14.1-.22.13-.25.08-.48.18-.63.41-.24.21-.57.23-.83.4-.27.1-.6.08-.77.39-.38.3-.84.49-1.24.76-.3.04-.6.11-.83.33-.27.12-.52.266-.76.45-.07.05-.14.08-.22.11-.246.06-.466.16-.61.39-.42.23-.81.53-1.24.75-.34.01-.55.24-.77.456-.47.26-.896.59-1.37.84l.02-.016c-1.806.93-3.38 2.26-5.247 3.1-.28.12-.6.16-.81.4m137.4 14.15c-.59.65-1.07 1.36-2.18 1.33-.55-.014-1.33.16-1.73.86-.25.43-.75.55-1.24.49-.5-.07-.96.09-1.11.51-.47 1.28-1.66 1.766-2.56 2.576-1.64 1.46-3.56 2.52-5.23 3.93-.16.14-.4.384-.77.195 2.53-2.16 4.75-4.6 7.104-6.9.62-.6.98-1.45 1.8-1.86-.26-.26.75-.72-.14-.9-.16-.03-.13-.13.16-.46l7.58-8.78c.29-.34.72-.46 1.04-.81 2.26-2.46 4.07-5.29 6.29-7.76.74-.82 1.51-1.89 2.725-2.26.32-.094.48-.345.69-.554 1.073-1.09 2.183-2.16 3.19-3.32.513-.6 1.24-.537 1.833-.86 1.27-.69 2.56-1.36 3.91-1.91.92-.37 1.9-.206 2.84-.42.44-.1.8.22 1.07.84.56 1.28.486 2.07-.71 2.973-.82.62-1.712 1.32-2.154 2.4-.14.34-.77.56-1.23.36-.51-.21-1.05-.05-1.56-.3-.38-.18-.75.04-1.06.38-1.31 1.45-2.817 2.71-3.987 4.32-.625.86-1.32 1.72-2.07 2.51-.31.32-.84.11-1.14.46-.16.34-.16.686 0 1.03l.13.26c-1.253.12-1.05 1.86-2.27 2.11-.09.02-.424.86-.763 1.297-.39.49-.78.87-1.35 1.11-.11.04-.28.2-.27.27.21 1.45-1.8 1.41-1.82 2.73 0 .22-.416.14-.63.12-.89-.09-1.11.4-.875 1.11.14.42.05.4-.31.56-.65.28-1.35-.01-2 .36-.63.36-.5 1-.76 1.49-.01.297-.28.36-.45.5" fill="#FFF"/>
  <path d="M138.956 98.285c.035-.095.08-.274.103-.27 1.08.14 2.08-.623 3.18-.335.3.08.54.077.85-.09.5-.282 1.06-.413 1.64-.115.16.084.36.175.57.037.59-.393 1.36-.137 1.88-.317 1.17-.41 2.33-.056 3.5-.304.99-.21 2.11-.45 3.19-.27.16.03.34.07.49.02 1.47-.45 3.03-.14 4.47-.45 1.15-.24 2.31-.25 3.43-.32 1.13-.07 2.25-.64 3.41-.24.23.08.45-.02.69-.06 1.32-.25 2.66-.27 3.99-.39 1.01-.09 2.02-.19 3.03-.27 1.33-.1 2.68-.23 4-.36 1.22-.12 2.52.05 3.7-.48.33 1.18-.59.94-1.19 1.06-.36.14-.75-.02-1.1.14l-1.14.06c-.41.16-.87-.05-1.28.15l-1.16.06c-.41.16-.86-.06-1.26.14-.33.02-.65.04-.97.05-.42.17-.87-.04-1.29.15l-1.15.06c-.41.17-.86-.05-1.27.15l-.96.05c-.42.17-.88-.03-1.29.15l-1.15.06c-.41.17-.86-.05-1.27.15l-1.16.06c-.36.14-.75-.02-1.1.14l-1.14.06c-.41.16-.86-.05-1.27.15l-1.16.06c-.35.14-.75-.02-1.1.14l-1.14.06c-.41.16-.87-.04-1.28.15l-1.16.06c-.41.16-.86-.05-1.26.15-.33.02-.65.03-.97.05-.42.16-.87-.04-1.29.15l-1.16.05c-.41.17-.86-.05-1.27.15l-1.17.06c-.35.14-.74-.02-1.09.14l-1.15.06c-.41.17-.86-.04-1.27.15l-1.17.06c-.35.14-.75-.02-1.09.14-.49 0-.96-.05-1.44.18-.34.17-.67-.08-.9-.37M178.1 80.1l-.09 1.11c-.32 0-.297-.25-.387-.46-.47-1.1-1.09-2.09-2.14-2.74-.14-.09-.26-.22-.37-.34-.45-.45-1.1-1.03-.57-1.59.42-.45 1.03.09 1.54.45.69.48 1.51.78 2.3 1.11.81.35 1.38.89 1.69 1.71.23.61.77.98 1.2 1.48-.95.31-1.41-.4-2.02-.74-.39-.15-.78-.17-1.17.01M63.86 43.11c.006.067 0 .13-.015.19l-.215.17c-.807.62-1.393 1.48-2.24 2.056-.402.27-.737.61-1.005 1.01-1.343 1.6-2.916 2.98-4.363 4.48-.136.14-.306.342-.51.172-.193-.162-.068-.38.054-.542.73-.955 1.39-1.965 2.196-2.865h-.005l.376-.23c.117.05.234.1.362.05.137-.08.246-.2.36-.31.142-.14.284-.27.423-.41.138-.14.275-.27.41-.41l.408-.41.407-.41c.133-.13.27-.27.403-.41.135-.13.272-.26.407-.4l.406-.4c.13-.14.27-.27.4-.41l.41-.41c.14-.14.28-.28.5-.3.24-.18.53-.22.82-.2M100 136.68c.103.38.103.76 0 1.144m0 0c-.05.235-.1.48-.43.42-.27-.05-.43-.26-.392-.5.15-.96-.4-1.87-.11-2.87.14-.474-.19-1.082-.31-1.63.41-.165.79-.272 1 .275l.06 1.13m45.64-93.98c-.15.29-.3.53-.68.63-1.12.3-2.22.66-3.33 1.01-.22.04-.48.17-.46-.24 1.407-.75 2.915-1.23 4.46-1.6.075.04.103.08.08.12-.02.05-.04.07-.065.07M133.48 27.85c.056.113.18.24.16.336-.383 1.626.678 2.298 1.878 2.89.08.038.124.152.183.232.08.04.1.077.08.12-.02.04-.05.06-.07.06-.7-.237-1.37-.502-1.95-1.017-.91-.81-.65-1.7-.27-2.62M108.55 56.5c.414.34.167.643-.156.717-.67.15-1.114.666-1.717.9-.407.105-.816.203-1.203-.062.014-.038.015-.074.003-.11.863-.826 1.906-1.263 3.07-1.447m27.993-24.8c1.336.454 2.44 1.304 3.587 2.085-1.484-.295-2.59-1.284-3.807-2.07.07-.08.144-.084.22-.014m-5.107 11.56c-.16-.21-.397-.16-.61-.18.98-.79 2.12-.6 3.237-.54-.186.47-.475.32-.772.12-.605.24-1.175.58-1.854.59m2.034 2.51c1.024-.54 2.122-.87 3.24-1.13.05.05.07.11.054.16-.014.05-.028.08-.046.08-1.003.58-2.142.75-3.24 1.05-.044-.04-.06-.07-.047-.11.01-.04.02-.06.04-.06" fill="#FFF"/>
  <path d="M133.287 42.675c.263-.012.544.083.774-.128.14-.026.28-.054.42-.082.31-.014.63-.053.61.41-.4.05-.76.165-1.13.337-.48.226-.78.056-.67-.537m3.63-.01c.49-.404.95-1.01 1.62-.2-.48.38-1.04.408-1.6.47-.09-.085-.1-.174-.01-.27m0 0l.02.27c-.44.36-.84.79-1.4.987l.18-.43 1.21-.826m80.59 1.18c.01-.304.27-.364.46-.5.25-.01.58-.187.58.28-.01.29-.23.29-.43.28-.2-.007-.4-.04-.6-.06m-82.41-.97c-.1-.283-.44-.23-.61-.41.25-.09.48-.224.73-.25.16-.02.27.172.27.356.01.28-.17.32-.39.303m-2.88 1.582c.39-.12.59-.45.83-.738l.24-.02c.16.68-.29.88-.82 1.01-.09-.08-.23-.11-.25-.26M105.5 57.46c-.005.08-.01.16-.02.24-.51-.03-.83.36-1.23.58.047-.27-.56.01-.33-.41.55-.07.922-.78 1.582-.43m35.146-17.68c-.53.04-.85.25-1.19.05-.03-.01.01-.22.07-.27.33-.29.64-.25 1.11.22m-15.1 1.9l-.09-.03h-.09c-.02-.35-.58-.585-.22-1.017.53.197.427.63.397 1.04m15.45.38c.096.2.285.2.46.24-.366.22-.766.34-1.284.407.14-.52.5-.553.83-.645M76.85 64.6c-.08.526-.49.37-.81.41-.06-.044-.087-.09-.06-.135.013-.05.04-.07.06-.07.25-.166.46-.42.81-.38.07.04.093.075.07.115-.026.04-.048.06-.07.06m21.51-48.72c-.074.524-.49.37-.81.41-.062-.045-.08-.09-.062-.137.02-.05.04-.07.062-.07l.81-.38c.072.04.097.08.072.12-.023.03-.048.05-.072.05m-.812.204l.002.203c-.08.52-.493.37-.812.406-.06-.047-.083-.09-.063-.14.02-.044.043-.07.064-.07l.81-.4m27.19 23.75c0-.14.01-.276.02-.415.49.21.39.64.38 1.04-.35-.07-.35-.37-.41-.62m-48.7 24.98v.21c-.08.52-.49.37-.82.41-.06-.04-.08-.09-.06-.13.02-.04.04-.06.06-.06l.81-.4zm20.7-48.32v.21c-.08.52-.49.37-.82.41-.06-.04-.08-.09-.06-.13.02-.04.04-.07.06-.07l.81-.4m13.19-5.5l.61.03c-.17.63-.66.34-1.04.38l.43-.4M75.22 65.21v.205c-.09.53-.498.374-.83.388l-.02-.188c.283-.137.567-.27.85-.405m61.498-20.325c-.004-.08-.005-.165-.01-.247.282-.14.56-.31.968-.158-.26.408-.59.445-.958.405m-4.03 1.403c-.308.156-.587.396-1.094.395.298-.477.646-.568 1.04-.58.064.024.096.06.09.106-.007.05-.017.08-.035.08m12.71-4.4c-.4.41-.8.46-1.35.3.45-.16.78-.36 1.34-.31" fill="#FFF"/>
  <path d="M36.65 84.488l.39-.01c-.054.562-.484.385-.81.41-.005-.064-.01-.127-.017-.19l.438-.21M32.8 86.54c.196-.01.393-.02.59-.032-.055.567-.485.388-.813.41-.01-.064-.014-.126-.02-.19.082-.063.16-.126.243-.187m-3.452 2.01l.39-.01c-.047.56-.478.38-.798.42-.06-.04-.08-.09-.06-.13.02-.04.04-.06.06-.06l.408-.2M26.3 90.2c.197-.01.393-.023.59-.03-.045.554-.476.38-.795.42-.06-.047-.08-.09-.06-.138.02-.046.04-.07.06-.07.068-.066.136-.13.205-.19m-5.09 3.22c-.004-.06-.01-.125-.018-.19l.232-.19c.19-.15.386-.15.59-.03-.045.57-.48.385-.805.41m-2.04 1.218l-.02-.19c.08-.06.16-.124.24-.188l.58-.036c-.05.573-.48.387-.81.41m-2.02 1.224c-.01-.064-.01-.13-.02-.19l.23-.19c.19-.01.39-.025.59-.037-.05.57-.48.39-.81.42" fill="#B3D18D"/>
  <path d="M108.487 11.81c-.01-.064-.02-.127-.037-.19.25-.282.58-.16.882-.175-.12.494-.514.358-.845.364" fill="#FFF"/>
  <path d="M15.54 96.67c.13-.004.26-.01.39-.012-.054.563-.483.386-.81.41-.005-.062-.01-.127-.018-.19l.438-.21" fill="#B3D18D"/>
  <path d="M95.918 16.897l.002.204c-.088.53-.498.38-.828.4-.003-.06.004-.12.02-.18l.806-.41m-10.163 5.87c-.003-.06.004-.12.023-.18l.85-.34c-.045.59-.46.56-.873.53m59.7 17.9c-.01-.06-.014-.13-.016-.19l1-.44.26.27-1.26.38m-20.91 5.12c-.19-.06-.4-.11-.32-.37.08-.24.28-.33.53-.29v.57l-.21.09zM98.35 15.89v-.18l.81-.404c.072.038.097.077.072.117-.028.04-.05.06-.075.06-.076.526-.49.376-.81.41M84.56 58.1c.52.1.372.503.382.835-.054.08-.118.09-.188.02l-.21-.447c-.107-.14-.107-.276.016-.408m-3.7 4.826c.094-.112.188-.224.285-.335.203-.05.405-.09.61-.14-.063.6-.465.57-.896.48M48.01 78.4l.412.018c-.094.505-.5.365-.82.395-.06-.044-.083-.09-.06-.135.02-.046.04-.068.06-.068.135-.072.27-.14.407-.21" fill="#FFF"/>
  <path d="M47.61 78.608v.203c-.087.53-.497.38-.825.4-.005-.06.002-.12.02-.19.27-.13.537-.27.806-.41" fill="#FFF"/>
  <path d="M41.726 81.668c.196-.01.395-.02.59-.032-.043.556-.476.382-.794.425-.06-.04-.082-.09-.06-.13.018-.04.04-.07.06-.07l.204-.19" fill="#B3D18D"/>
  <path d="M41.52 81.855l.002.205c-.088.526-.498.374-.828.393-.004-.065.003-.126.02-.188.27-.136.538-.273.806-.41" fill="#B5D28F"/>
  <path d="M141.73 43.148c-.217.42-.513.353-.888.32.272-.25.49-.406.887-.32m-44.2-23.205c.13-.405.47-.407.81-.407.07-.086.15-.082.22.01-.2.278-.53.288-.81.406-.08.073-.15.068-.23-.01m3.25-1.192l-.42-.033c.14-.396.47-.398.81-.398.08-.09.15-.09.22 0l-.62.42m-1.63-3.27v-.18c.13-.09.27-.17.4-.26l.42.04c-.1.5-.5.36-.82.39m39.15 25.19c-.16-.18-.55-.29-.39-.56.11-.18.47-.2.61.15-.15.1-.03.34-.23.41m-57.42 6.48c.01-.14.01-.28.02-.42.52.12.38.51.34.86l-.34-.29c.01-.05-.01-.11-.04-.16" fill="#FFF"/>
  <path d="M28.936 88.756v.204c-.135.416-.472.42-.82.4 0-.065.01-.126.03-.188.262-.14.525-.277.79-.416" fill="#B6D391"/>
  <path d="M132.683 46.29c0-.068-.02-.132-.056-.186.256-.168.52-.324.84-.333-.004.06-.004.11.006.17-.15.37-.607.06-.79.36m82.747.54c-.247.43-.574.32-.972.27.34-.18.556-.48.972-.27M82.534 52.82c.52.123.386.507.342.856-.223.02-.274-.142-.33-.302.012-.053.002-.1-.03-.144-.11-.14-.11-.278.018-.41m26.13-7.686c.096.112.19.223.286.333-.347.04-.74.18-.856-.35l.41-.02c.05.03.104.04.16.032m31.476-.58c-.34.21-.572.41-.924.3.19-.36.475-.35.924-.31m-34.32-.23l.288.33c-.347.04-.726.17-.867-.33h.58m-23.71 7.7c.01-.14.02-.28.02-.42.52.12.39.51.34.85-.22.02-.27-.15-.33-.31.02-.05.01-.1-.03-.14m-3.22 11.8c-.14.49-.52.37-.86.32-.02-.22.15-.27.31-.33h.57m-2.04.79v-.18l.42-.26c.15-.08.28-.09.41.04-.09.5-.5.36-.82.4m27.19-20.69l.42-.03c.21.13.41.27.62.4-.39.01-.82.1-1.03-.38M87.4 42.59l.28-.34c.06.01.11-.004.16-.034l.42.03c-.13.52-.51.382-.86.34m86.58-1.99c.64.063.788.35.84.77l-.836-.77m-92.3 9l-.325-.3c0-.056-.01-.1-.04-.147l.02-.42c.51.12.38.51.34.86m1.28 4.42c.51.1.37.5.37.83-.25.06-.3-.12-.36-.29.01-.06 0-.1-.03-.15-.11-.14-.11-.28.01-.41" fill="#FFF"/>
  <path d="M26.094 90.38v.204c-.135.416-.472.42-.82.4 0-.065.01-.128.03-.188l.79-.417" fill="#B6D391"/>
  <path d="M90.254 23.616c.096-.45.454-.416.788-.426.08-.088.154-.08.226.01-.147.106-.293.215-.44.322-.15.273-.362.194-.574.094m25.144 23.544l.414-.02c.205.132.412.267.618.402-.395.01-.82.102-1.032-.382m-17.86-27.217c.074.002.15.005.224.01l-.623.42-.42-.03c.13-.402.47-.4.81-.4M136.54 31.7c-.073.006-.146.01-.22.015l-.61-.226c-.002-.06-.004-.13-.004-.19.342-.01.665.03.835.39m1.78 8.96c.05-.15-.02-.37.23-.41-.15.24.44.36.12.61-.25.2-.31 0-.33-.21m-39.76-21.1c-.07-.01-.15-.01-.22-.01.15-.41.49-.42.84-.38l-.28.35-.33.03m-10.36 5.29c.01.06 0 .12-.02.18l-.22.13c-.19.03-.37.06-.56.1.1-.47.46-.43.81-.42m13.2-6.5l-.22-.01c.15-.42.49-.42.84-.38-.09.11-.19.23-.28.35l-.33.03m3.44-1.22l-.41-.02c.16-.41.49-.41.84-.38l-.28.35c-.05-.01-.1 0-.14.03" fill="#FFF"/>
  <path d="M91.268 23.198c-.075-.004-.15-.005-.226-.01.147-.41.484-.413.835-.387.004.07-.003.13-.02.19l-.59.21m40.946 4.92c-.18.05-.275.1-.326.08-.128-.07-.34-.05-.33-.27 0-.02.18-.08.26-.05.112.04.207.13.396.25" fill="#FFF"/>
  <path d="M119.882 86.116c-.02-.053-.04-.11-.05-.167l.243-.24.66.36-.853.03" fill="#9EC66D"/>
  <path d="M54.917 51.395c.223-.09.428-.156.402.216-.15.04-.29.22-.45.04-.09-.09-.05-.18.04-.24M81.9 41.07l-.606-.02c.102-.155.198-.336.41-.323.207.012.212.182.195.343m21.81 11.406c-.02.08.06.08.12.107-.05-.11.07-.18.1-.27-.08.05-.19.07-.22.166m-6.37 5.43l6.79-2.74.13.33-6.92 2.87c-.14-.15-.15-.31-.02-.47m0 0l.02.46c-.4.01-.77 0-1.06.4-.44.61-1.14.78-1.85.96-.02-.42.32-.55.47-.8.11-.15.28-.21.41-.31-.14.03-.25.2-.43.09l-.81-.28c1.02-.81 2.16-.53 3.24-.54m14-4.44c-.75-.45.46-.69.11-1.1.75-.24 1.34-.91 2.21-.8.24.02.62-.06.64.29.02.26-.38.19-.53.36-.72.6-1.55.98-2.45 1.23m-25.14 1.8l2.05 3.42c-.43-.13-.72-.32-.92-.81-.36-.88-1.01-1.63-1.14-2.61m19.66 2.15c-.15.1-.23-.01-.31-.1-.17.09-.36.16-.48-.04-.1-.17.06-.28.18-.37.75-.33 1.49-.68 2.27-.96.57-.21.17.2.18.35-.31.37-.83.37-1.19.65-.24.11-.5.2-.64.47" fill="#FFF"/>
  <path d="M111.346 53.472c.717-.602 1.547-.988 2.445-1.237l.2.386c-.79.43-1.73.55-2.44 1.14-.33.09-.19-.14-.2-.28m-3.65-1.65c.49.56.93.08 1.43-.17-.36.82-1.4 1.13-2.1.72-.02-.01-.02-.06-.01-.08.01-.03.05-.05.07-.07.13-.25.33-.4.62-.39m-5.18 2.36c.48-.43.87-1.01 1.71-.92-.39.73-.99.93-1.7.93m5.99-.36c-.86.15-1.58.78-2.74.79.98-.59 1.78-.97 2.74-.95.06.04.09.07.07.11-.02.04-.04.06-.06.06m-3.33.04c-.35.54-.8.86-1.47.76.26-.79.97-.55 1.47-.75m27.04-9.4l.26.26c-.5.34-1.06.49-1.77.61.38-.7.99-.73 1.52-.87" fill="#FFF"/>
  <path d="M107.69 51.823c-.15.216-.372.32-.617.39-.142-.25-.41-.124-.607-.205l2.042-1.003c.075.62-.588.504-.818.818m2.626 1.833c-.486.582-1.23.575-1.87.812-.107.04-.303-.002-.25-.18.03-.103.2-.164.306-.245.286-.214.61-.35.944-.468.3-.08.604-.193.87.08M84.57 51.598c.264.617.53 1.235.79 1.852.102.084.097.16-.012.23-.54-.59-.883-1.252-.777-2.082m20.95 4.09c-.42.466-.72.713-1.17.492-.05-.026-.11-.207-.07-.24.32-.35.72-.265 1.25-.253m-11.45 3.29c0 .34-.29.334-.49.39-.14.044-.38.07-.4-.135-.02-.253.16-.435.43-.454.19-.014.42-.083.48.2m11.19-2.09c-.18.333-.05.446.29.412l-.06.168c-.58-.074-1 .468-1.58.42l1.36-1m1.24.008c.37-.268.73-.542 1.2-.614.16.012.31.028.47.042-.47.27-.92.617-1.52.558-.04.077-.09.086-.15.014m6.07-5.36l-1.19.315c.44-.71.49-.72 1.19-.31" fill="#FFF"/>
  <path d="M99.37 138.94c.15-.077.297-.154.444-.232.112.058.223.116.33.174.143.79-.497.324-.757.472-.004-.138-.01-.277-.017-.414" fill="#7FB942"/>
  <path d="M109.49 53.805l-.988.238-.005-.23c-.012-.053-.016-.107-.01-.163.326.04.415-.29.643-.405.053.058.11.114.174.165.12.105.272.193.186.395m0 0l-.356-.39c.317-.133.677-.147.966-.354.25.14.22.37.216.6l-.826.15m-6.622 2.74c.328-.13.556.16.863.17-.54.41-.54.41-.86-.17m-7.96 2.19c.29-.24.54-.55 1.06-.5-.23.49-.69.52-1.04.72l-.01-.21M84.16 50.4c.276.354.345.78.422 1.205-.62-.235-.38-.77-.42-1.207m16.9 9.04c.213-.385.4-.692.87-.673-.14.385-.3.696-.873.675M83.75 49.174c.274.36.293.805.403 1.22-.58-.26-.374-.78-.402-1.22m.38 7.734l-.34-.26c-.01-.195-.02-.388-.04-.58.53.1.38.5.38.834m-34.5 21.07c.08-.12.17-.237.25-.356.19-.014.38-.03.57-.046-.05.567-.48.39-.81.402m63.77-31.262c.33.007.64.074.83.375-.34.03-.76.21-.83-.373" fill="#FFF"/>
  <path d="M43.125 81.227l.258-.34c.195-.01.388-.023.582-.033-.106.514-.505.372-.84.373" fill="#B3D18D"/>
  <path d="M97.137 56.685c-.26.17-.54.268-.96.165.224-.223.373-.428.687-.414.244-.084.3.033.273.25M48.79 78.356c.2-.295.498-.374.83-.375-.07.59-.485.41-.83.38m35.386-20.88l-.05-.56c.587.07.4.49.375.83l-.32-.26m26.76-11.54l.59.02.27.33c-.35.05-.74.19-.85-.34m-.63-.38l.27.33c-.35.04-.73.18-.86-.34.2 0 .4.01.6.01" fill="#FFF"/>
  <path d="M121.815 49.31c.874-.5 1.66-1.183 2.752-1.16.1.003.284.014.29-.01.3-1.357.78-.012 1.17-.06-1.358.576-2.648 1.35-4.212 1.23m-10.27 4.447c.63-.775 1.567-.895 2.444-1.137-.67.69-1.61.816-2.45 1.137m-2.41-.343c-.01-.056-.01-.112-.01-.168.33-.005.6-.35.97-.184-.2.455-.58.43-.97.352m-.63-2.41c-.51.694-1.3.8-2.04 1.004-.87.21-1.75.418-2.62.626-.89.468-1.77.988-2.82 1.026-.89.063-1.58.624-2.35.968-.32.167-.65.305-1 .384-.74-.17-1.32.312-1.97.496-.4.265-.83.483-1.06.93-.2.292-.52.32-.82.41-1.14.696-2.55.707-3.7 1.442-.54.344-1.24.403-1.9.374-1.03-.932-1.43-2.24-2.05-3.42l-.41-.81c-.35-.24-.23-.718-.51-.992-.27-.604-.64-1.165-.71-1.845-.34-.335-.23-.825-.43-1.205-.38-.326-.22-.832-.41-1.22-.71-1.862-.84-3.84-1.21-5.893 1.12.39 2.29.17 3.24 1.04.46.42 1.25.48 1.93.39 2.48-.35 4.77.54 7.12 1.07.91.2 1.85.59 2.75.53 2.59-.18 4.81 1.08 7.21 1.61 1.24.27 2.51.45 3.65 1.07.8.44.82 1.53.06 2.01m-8.82 24.16c1.46.99 2.93 1.99 4.48 3.05-.5 0-.94.02-1.39-.01-6.75-.43-13.5-.64-20.25-.37-6.17.24-12.3.9-18.31 2.41-2.86.72-5.71 1.52-8.48 2.55-.28.1-.57.17-.97.28.1-.46.41-.51.63-.62 6.98-3.42 13.97-6.8 20.94-10.23 3.71-1.83 7.39-3.71 11.07-5.6.9-.46 1.49-.26 2.34.28 3.65 2.34 6.36 5.79 9.92 8.22m54.75-37.03c-.19-.3-.36-.35-.61-.32-.63.08-1-.25-1.29-.74-.88-1.32-2.14-2.28-3.22-3.41-.53-.55-.97-1.2-1.71-1.52l-2.96-2.5c-.55-.19-1.13.07-1.67-.15-.22.02-.45.12-.58-.16-.4-.29-.84-.5-1.26-.76-.82-.51-1.53-1.19-2.47-1.5l-2.17-1.17c-.22-.26-.57-.26-.82-.46l.02.01c-.27-.19-.58-.26-.86-.42-.06.02-.1.02-.15-.03-.25-.18-.52-.33-.82-.38-.17.02-.34.04-.42-.17-.28-.35-.72-.01-1.02-.25l.01.01c-.68-.54-1.52-.18-2.26-.43-1.43-.58-1.43-.58-1.37-2.25-.75-.26-.84.53-1.26.79l-.02.02c-.08.29-.16.59-.38.81l-.06.21c-.3.2-.33.58-.53.85l.01-.01c-.71.06-1.3.16-.78 1.13.15.28.13.72-.06 1.06l-.21.62c-.32 1.49-.48 3.01-.78 4.5-.24.29-.12.63-.12.94-.01 2.22-.01 4.45-.01 6.67.1.46.3.87.49 1.3.01.06.01.13-.01.19.16.38.28.77.33 1.18.06.37.24.7.34 1.06.41 1.38.06 2.07-1.08 2.19-.15.21-.14.42.04.62.33.13.58-.4 1.01-.03-.75.71-1.55 1.36-2.46 1.83-.19.1-.77.39-1.02-.17-.12-.55-.56-.19-.84-.29-.1.02-.21.05-.26.13-.28.51-1.32.15-1.24 1.08-.42-.28-1.17.07-1.32-.71-.73-.01-1.47-.01-2.2-.02-.39-.11-.75-.29-1.1-.49-.34-.04-.7.04-1.03-.09-.31-.1-.66-.1-.87-.42-.48-.28-1.03-.31-1.56-.38-.32-.06-.64-.13-.92-.31-.13-.04-.26-.09-.4-.12-.32-.03-.61-.16-.89-.31-.23-.02-.46-.01-.68-.09-.33-.01-.64-.06-.88-.3-.13-.04-.26-.09-.39-.13-.31-.07-.62-.13-.89-.3-.23-.02-.46 0-.68-.08-.3-.07-.65.03-.91-.22-.06-.02-.12-.03-.18-.04-.42-.08-.76-.33-1.14-.49-.48-.03-.95.07-1.42-.07-.37-.03-.7-.22-1.04-.33-.59-.04-1.19.07-1.77-.07-.38-.04-.72-.21-1.06-.34-.6-.04-1.21.07-1.81-.07-.4-.03-.73-.26-1.12-.34-2.46.29-4.88-.48-7.33-.4-.37.16-.73.34-1.14.35-.82.14-1.65-.04-2.47.09-.89-.04-1.79.32-2.68-.07-.19-.49.04-1.02-.15-1.51l-.03.01c-.196-.19-.4-.15-.6-.02-.63.38-.81.93-.84 1.67-.04.98.394 1.86.383 2.82-.09.36-.04.73-.04 1.1.18.31.34.62.33.99.11.34.05.69.07 1.04.14.29.36.56.32.92.03.13.08.26.112.4.17.27.26.57.3.89.08.22.06.45.09.68.18.26.33.53.3.87.03.13.08.26.11.39.21.24.31.52.3.84.03.13.08.25.11.38.17.21.31.44.33.72.03.08.072.16.13.23.18.21.21.47.25.72.03.12.07.25.11.37.14.21.24.44.31.69.03.08.07.15.12.22.21.22.22.52.28.79.04.12.06.24.12.36.24.23.26.56.36.85.13.31.11.66.31.94.073.2.08.4-.01.6-.327.65-.84 1.14-1.56 1.1-.73-.04-1.21.29-1.69.72-.047.05-.1.09-.17.09-.243.32-.6.35-.953.37-.63.02-1.02.51-1.52.78l-.39.22c-.24.24-.57.15-.86.2l-.38.11c-.23.21-.51.33-.81.4-.24.2-.54.27-.81.41-.19.29-.55.24-.8.4-.2.29-.55.26-.83.37-.68.1-.84.86-1.4 1.11v.004c-.28.21-.6.055-.91.11-.27.11-.52.28-.81.344-.08.03-.15.07-.22.12-.22.22-.54.2-.81.305-.25.16-.59.17-.81.41-.17.3-.51.27-.78.39-.5.31-.97.66-1.53.88-.25.19-.56.22-.86.29-.12.04-.25.08-.38.12-.27.18-.58.25-.9.3-.93.44-1.85.9-2.765 1.367-3.91 1.973-7.82 3.94-11.75 5.88-.19.25-.42.42-.72.49-.08.03-.16.08-.22.13-.21.19-.49.17-.74.243-.12.04-.25.08-.378.12-.22.24-.55.26-.81.41-.21.27-.52.31-.83.37-.4.22-.78.487-1.16.75l.014-.02c-.56.3-1.05.737-1.67.92-.26.18-.57.25-.87.32-.27.17-.606.188-.84.41-.177.28-.49.35-.747.51-.21.27-.523.31-.83.362-.69.39-1.37.79-2.07 1.16-.18.3-.5.33-.795.41-.26.17-.61.18-.83.42-.137.36-.49.34-.77.45-.42.25-.87.46-1.27.76-.177.3-.497.32-.78.4-.27.17-.61.18-.84.42-.19.28-.49.36-.79.45-.92.56-1.89 1.04-2.84 1.55-.13.35-.48.35-.74.49-.24.22-.52.35-.85.38-.43.25-.82.55-1.27.76-.17.29-.48.35-.74.5-.24.22-.52.34-.84.37-.84.49-1.64 1.03-2.46 1.54-.14.24-.37.35-.626.42-.08.04-.15.08-.22.13-.23.2-.52.27-.8.36-.41.26-.83.505-1.23.77-.18.28-.48.35-.77.44-.43.236-.83.52-1.25.77-.18.28-.48.356-.77.45-.43.24-.85.506-1.26.78-.14.36-.505.33-.79.44-1.34 1.096-2.905 1.85-4.354 2.776l.02-.02c-.44.24-.82.566-1.24.83l.02-.02c-.44.24-.82.57-1.24.83l.02-.016c-.44.24-.82.566-1.24.83l.02-.02c-.44.24-.82.567-1.24.83l.03-.02c-.44.24-.82.57-1.24.83l.02-.02c-.925.727-1.93 1.33-2.86 2.05l.02-.02c-.51.26-.915.66-1.32 1.05-.315.31-.35.63-.003.95.136.54.155 1.11-.2 1.534-.58.7-.085.65.39.7.34.038.59-.15.84-.29 1.776-1 3.52-2.07 5.31-3.05 3.93-2.16 7.87-4.3 11.83-6.41 5.13-2.73 10.26-5.452 15.425-8.11 3.58-1.84 7.23-3.56 10.84-5.34 2.16-1.06 4.33-2.08 6.554-2.99.33-.14.65-.18.97 0 .22.41.46.81.66 1.22 1.07 2.21 2.64 4.04 4.5 5.56 2.633 2.16 5.505 4.03 8.06 6.29 1.89 1.67 4.31 2.43 6.446 3.68 1.45.858 3.25 1.07 4.8 1.85.5.25 1.06.37 1.59.54.46.15.97-.09 1.42.15.63.31 1.15.96 1.94.75.81-.21 1.39-.17 1.51.815.02.15.1.29.24.25.75-.23 1.3.43 2 .43 1.19-.01 2.38-.1 3.53.39.41.17.66.37.73.836.09.544-.27.59-.62.697-1.92.56-3.85 1.11-5.77 1.68-4.03 1.21-8.01 2.57-11.96 4.03-4.41 1.63-8.75 3.45-13.03 5.41-3.12 1.43-6.2 2.95-9.22 4.59-3.71 2.01-7.36 4.11-10.94 6.36-.62.39-1.18.99-2.02.97-1.12-.04-1.86.57-2.47 1.43-.64.88-1.16 1.84-1.92 2.65-.82.87-1.51 1.87-1.32 3.19.05.36.1.72.21 1.07.3.96.66 1.92 1.62 2.41 4.14 2.12 8.58 3.19 13.2 3.51.46.143.97-.096 1.42.143l1.83.06c.46.15.96-.09 1.42.15l1.83.06c.6.15 1.23-.1 1.83.14l2.43.06c2.16.07 4.32.07 6.48 0l1.83-.06c.45-.24.95 0 1.42-.15l2.23-.06c.45-.24.954 0 1.42-.15.54-.02 1.08-.03 1.62-.05.38-.23.82-.01 1.21-.15.86-.14 1.74-.15 2.6-.21 2.52-.19 5.03-.52 7.52-.9 3.29-.5 6.57-1.11 9.79-1.98 2.31-.62 4.66-1.12 6.89-2.04.08-.08.13-.17.15-.28 0-.11-.03-.2-.08-.28-.02-.01-.04 0-.06-.01l-7.08 1.69c-.34.08-.675.22-1.15.08.65-.47 1.31-.52 1.936-.7 1.94-.54 3.88-1.09 5.87-1.44.3-.05.65-.3.87.15-.03.07-.075.12-.12.16.12.06.24.09.38.1l.14-.05-.05-.98c-.04-.09-.116-.14-.22-.14-.295.07-.47-.08-.48-.35-.026-.735-.29-1.45-.176-2.19.12-.77-.054-1.457-.5-2.08-.15-.07-.29-.07-.43.02-.48.02-.914.325-1.414.223-.31.24-.705-.01-1.023.18-.93.21-1.85.47-2.79.6-1.42.21-2.8.83-4.28.45-.53.6-1.27.11-1.86.36-.13.02-.27.03-.4.04-.17.2-.45 0-.63.18-.84.3-1.7-.11-2.54.04-.56.21-1.15-.03-1.71.16-.38.26-.74.58-1.23.21-.48-.09-.95-.17-1.41.05l.01-.01c-.39.18-.8.08-1.198.09-2.58.056-5.17-.1-7.75.086-.34.06-.64.35-1.02.19-.33-.17-.72.06-1.038-.16l-1-.03c-1.07-.23-2.18.09-3.25-.18-.4 0-.81-.01-1.21-.02-1.09-.23-2.21.08-3.3-.16-.32-.02-.64-.03-.96-.04-.75-.22-1.53.07-2.28-.17l-.76-.04c-.49-.2-1.02.04-1.51-.16l-.52-.04c-.407-.19-.867.05-1.27-.16-1.09.06-2.13-.22-3.18-.42-3.31-.61-6.5-1.56-9.51-3.08-.237-.12-.616-.24-.58-.49.04-.26.32-.45.66-.54 1.71-.45 3.06-1.62 4.606-2.41 3.15-1.59 6.2-3.4 9.39-4.89 3.53-1.64 7.2-2.97 10.77-4.53 6.27-2.74 12.55-5.46 19.15-7.32 2.34-.66 4.64-1.4 6.93-2.23 1.59-.58 3.32-.78 4.99-1.17 1.88-.43 1.88-.44 1.88-2.28-.16-.35 0-.74-.14-1.1-.02-.32-.04-.64-.05-.96-.29-.45.32-1.3-.64-1.46-3.46-.19-6.83-.92-10.2-1.64-8.46-1.82-16.4-4.89-23.52-9.908-2.15-1.51-4.07-3.28-6.05-4.99-.55-.47-.44-.69.23-.89.52-.15 1.07-.134 1.57-.18 1.84-.16 3.62-.84 5.5-.68.8.066 1.65.075 2.35-.316.54-.3.99-.176 1.5-.096.4-.2.85.013 1.25-.15 1.56-.08 3.04-.647 4.6-.67 1.1-.227 2.23.1 3.33-.16l.05-.05.07.004c.41-.2.92.22 1.29-.21l-.01.02c.343-.2.564.04.8.22.28.45.52-.11.79-.02.192-.1.37-.22.44-.45l.19-.15c.61-.23 1.25.03 1.86-.15 1-.01 2.01-.03 3.016-.05.95-.24 1.92.05 2.87-.15l1.8-.04c.53-.23 1.11.03 1.65-.15.594-.24 1.07.07 1.55.35.525-.13 1.05-.13 1.58 0l1.35.06c.55.177 1.13-.07 1.67.15h.72c.4-.21.85.01 1.26-.16.294-.03.152.4.42.41 1.15.19 2.33-.09 3.48.15 1.35.12 2.7.31 4.02.65.3.09.57-.18.88-.06.74.22 1.49.59 2.27.37 1.05-.3 1.88.15 2.79.52 1.81.74 3.476 1.82 5.42 2.23.204.29.51.26.81.25.16-.035.28-.1.2-.3-.19-.333-.56-.46-.83-.69-.164-.14-.71-.04-.43-.54.166-.13.166-.25 0-.375-1.37-.42-2.55-1.25-3.844-1.84-.91-.41-1.65-1.24-2.49-1.54-1.09-.39-1.64-1.395-2.67-1.73-.11-.04-.2-.18-.27-.296-.7-1.12-1.83-1.604-3.023-1.835-.656-.13-1.005-.48-1.41-.89-.63-.65-1.19-1.4-2.06-1.78-.32.09-.54-.14-.795-.26-.7-.93-1.38-1.897-2.59-2.27-.23-.07-.44-.318-.59-.53-.52-.79-1.29-1.34-1.96-1.99-1.37-1.32-2.94-2.44-4.07-4.02-.37-.51-.54-.87.23-1.2.92-.39 1.79-.89 2.68-1.35.18-.47.52-.11.78-.14 1.793-.81 3.16-2.4 5.31-2.63.79-.08 1.82-.5 2.203-1.5.12-.16-.14-.26-.06-.41.46-.176.76-.59 1.173-.84.82-.076 1.46-.797 2.33-.68.13.052.26.08.4.07.09-.01.17-.05.24-.11.59-.23 1.188-.45 1.78-.68.3-.16.55.26.85.07 1.64-1.107 3.45-1.88 5.274-2.61.83-.33 1.62-.29 2.41.254 1.165.8 2.356 1.598 3.62 2.208 2.03.97 3.827 2.32 5.64 3.61.88.62 1.7 1.45 2.51 2.22 1.24 1.18 2.65 2.24 3.53 3.72.81 1.354 1.85 2.52 2.78 3.762.2.26.54.52.77.35 1.07-.81 1.46 0 1.93.71.07.09.23.12.35.18.14.33.22.7.51.95.6.44.99 1.06 1.4 1.67.35.51.76 1.01 1.71 1.16-.79-.86-1.02-1.82-1.634-2.43-.823-.81-1.154-1.868-1.782-2.76-.25-.39.15-.9-.23-1.26-.55-.23-1.03-.62-1.06-1.2-.03-.62-.26-1.06-.66-1.48-.14-.15-.18-.384-.2-.63-.03-.47-.07-.99-.28-1.398-1.26-2.44-2.67-4.8-3.8-7.33-.98-2.23-1.93-4.47-2.74-6.77-.19-.56-.41-1.37.37-1.848-.31-.24-.98.21-1.02-.33-.03-.43.62-.4.97-.56.46-.21.96-.32 1.42-.53.96-.45 2.07-.61 2.82-1.46.08-.13.31-.21.187-.43l-2.43.21c-.19.41-.48.71-.91.86-.39.166-.79.317-1.19.457.36-.14.71-.29 1.07-.43.33-.23.88-.27.78-.88-.57.023-1.19.073-1.612.394-.6.45-.947.244-1.35-.186.38-.42.96-.36 1.36-.66-.09-.44-.36-.27-.61-.187-1.55.574-1.906.56-2.146-.37-.46-1.76-1.256-3.45-1.04-5.38.16-1.4.03-2.83.04-4.25 0-1.845-.07-3.69.36-5.515.14-.58.34-.866.92-.74 1.51.33 3.02.67 4.53 1.01.11.15.14.34.07.48-.57 1.11.17 1.71.88 2.36.36.32.85.37 1.22.66.31.123.64.21.894.45 1.24.564 2.33 1.41 3.57 1.983 1.47 1.79 3.547 2.96 5.01 4.77.05.07.18.08.27.12.6.25.89.74 1.04 1.35-.04.21.03.32.26.26 1.01.47 1.54 1.49 2.44 2.09.16.11.32.28.388.46.5 1.41 1.56 2.43 2.43 3.57 1.68-1.39 3.13-3.01 4.65-4.56.1-.09.12-.24.14-.37-.78-1.11-1.59-2.19-2.32-3.34" fill="#FFF"/>
  <path d="M81.74 50.574l-.022-.59c.53.117.388.508.347.857-.108-.09-.217-.17-.326-.26m25.13-5.85c.34-.04.64.04.86.34-.35.04-.74.18-.86-.34m-4.69-1.2c.09.11.17.22.26.33-.35.05-.74.18-.86-.34l.59.02m-3.44-.42c.2 0 .4.01.59.01l.26.33c-.35.05-.74.18-.86-.34m-27.6 24.32c.08-.12.16-.23.24-.35l.59-.02c-.11.52-.5.38-.84.38M96.5 42.71l.266.328c-.35.042-.733.177-.863-.34.2.005.397.01.597.012M70.57 67.48c.19-.018.375-.033.56-.05-.05.574-.48.387-.81.404l.25-.35M68.7 68.64c.166-.348.483-.385.813-.404-.05.574-.48.39-.812.405m-2.45 1.19c.21-.29.51-.39.86-.35-.11.54-.5.39-.85.35m-.95.08l.59-.02c-.11.54-.51.39-.85.35l.27-.32" fill="#FFF"/>
  <path d="M22.018 93c.082-.12.165-.234.247-.352l.563-.054c-.05.574-.48.395-.81.405m15.832-8.93c.08-.12.164-.24.246-.36l.565-.06c-.05.57-.48.39-.81.4m-3.65 2.03l.25-.36.57-.06c-.05.58-.48.4-.81.41" fill="#B2D08B"/>
  <path d="M83.364 55.445c-.016-.188-.032-.375-.05-.565.59.068.4.488.376.832-.11-.088-.217-.178-.326-.267m1.984-1.765c.004-.077.01-.153.012-.23.274.272.342.633.435.984-.426-.087-.42-.43-.447-.754m11.79 3.005c-.09-.082-.184-.165-.275-.25.22-.17.528-.287.682-.06.1.152-.227.25-.408.31m-3.28.165c.235-.207.49-.37.812-.41-.11.473-.45.473-.82.41" fill="#FFF"/>
  <path d="M62.426 144.484c.398-.242.684-.274.98-.004-.294.277-.58.24-.98.004" fill="#F2F7EC"/>
  <path d="M172.615 31.29c.035-.323.063-.65.41-.817.034.358.05.71-.41.817M129.168 6.9c.214-.3.512-.385.863-.338-.13.518-.51.382-.86.34m-27.74 7.39l.57-.052c-.05.575-.48.39-.81.405l.25-.352m.57-.056l.26-.34c.2-.01.39-.024.58-.034-.1.517-.5.375-.83.374M63.05 43.304l-.407.407c-.182-.07-.3-.19-.2-.41-.026-.13.046-.2.17-.22.18.01.35.04.44.23M90.26 23.62l-.246.358-.563.054c.05-.57.48-.393.81-.41m3.66-2.026c-.16.35-.48.387-.81.408.05-.572.48-.39.81-.405m1.63-.81c-.16.35-.48.38-.81.4.05-.57.48-.4.81-.41m.84-.38c-.2.29-.5.36-.83.37.07-.59.48-.4.83-.38M62.43 43.3c.07.138.14.275.205.41l-.405.406c-.186-.077-.298-.19-.205-.41.018-.252.15-.39.405-.405" fill="#FFF"/>
  <path d="M62.028 43.706l.205.412-.407.405c-.184-.08-.298-.193-.204-.41.017-.254.152-.39.406-.407" fill="#FFF"/>
  <path d="M61.623 44.113c.07.137.137.274.204.41l-.405.405c-.186-.077-.298-.193-.205-.41.016-.254.15-.39.406-.405" fill="#FFF"/>
  <path d="M61.216 44.518l.205.41c-.13.138-.27.273-.4.408-.18-.08-.3-.193-.2-.41.02-.255.16-.392.41-.408" fill="#FFF"/>
  <path d="M60.81 44.925c.07.137.138.274.205.41l-.405.405c-.186-.08-.298-.193-.205-.41.016-.254.15-.39.406-.405m-.4.405l.21.41-.4.407c-.18-.08-.3-.193-.2-.412.02-.252.15-.387.41-.405m-.4.406c.07.14.14.276.2.412l-.4.405c-.18-.08-.3-.193-.2-.41.02-.253.16-.39.41-.407m-.4.407l.21.41-.4.407c-.18-.08-.3-.193-.2-.412.02-.253.15-.388.41-.405m-.41.405l.21.412-.4.405c-.18-.08-.3-.193-.2-.41.02-.253.15-.39.41-.407m-.41.407c.07.137.14.274.2.41l-.4.408c-.18-.07-.28-.177-.19-.38.02-.236.13-.403.39-.438m-.42.44l.19.375c-.09.084-.19.25-.26.235-.28-.05-.12-.31-.18-.474.09-.04.17-.09.25-.13m48.11 9.5c.05 0 .1 0 .15-.01-.14.36-.49.39-.78.52-.04-.48.35-.44.64-.5m-2.62-4.27l-.59-.04c.46-.28.78-.59 1.31-.5-.27.21-.5.38-.72.56h.02m-5.31 1.81c.11.03.35.1.25.15-.34.19-.68.55-1.15.27l.91-.42" fill="#FFF"/>
  <path fill="#EC008C" d="M102.3 165.58l181.964-15.927 2.245 25.647-181.97 15.928z"/>
  <path d="M124.567 183.23l-3.3.288-2.56-7.15c-.168-.474-.347-1.27-.39-1.755l-.18.016c.044.48.022 1.28-.06 1.79l-1.277 7.48-3.3.28-3.74-12.92 3.05-.27 1.9 7.46c.136.55.31 1.49.35 1.94l.18-.02c-.04-.43-.007-1.09.132-1.98l1.055-6.95 3.175-.28 2.28 6.65c.172.51.365 1.48.404 1.93l.18-.02c-.04-.45-.036-1.45.01-1.97l.664-7.69 2.853-.25-1.433 13.37zm17.537-1.536l-3.3.29-2.56-7.15c-.168-.475-.347-1.273-.39-1.757l-.18.016c.044.484.022 1.282-.058 1.795l-1.28 7.486-3.3.29-3.732-12.922 3.05-.267 1.9 7.46c.137.55.31 1.492.35 1.94l.18-.016c-.04-.43-.005-1.09.133-1.99l1.056-6.95 3.175-.28 2.28 6.65c.172.51.365 1.48.404 1.93l.18-.02c-.04-.45-.036-1.45.008-1.97l.666-7.69 2.852-.25-1.434 13.37zm17.536-1.534l-3.3.29-2.56-7.152c-.167-.473-.346-1.27-.39-1.755l-.178.016c.043.48.02 1.28-.06 1.79l-1.28 7.48-3.3.28-3.732-12.92 3.05-.27 1.9 7.46c.137.55.31 1.49.35 1.94l.18-.02c-.04-.43-.006-1.09.133-1.98l1.056-6.95 3.17-.28 2.28 6.65c.17.51.36 1.49.4 1.94l.18-.02c-.04-.45-.04-1.44.01-1.97l.66-7.69 2.85-.25-1.44 13.37zm4.46-.227c-1.006.088-1.702-.43-1.79-1.452-.09-1 .526-1.61 1.53-1.7.97-.08 1.73.36 1.823 1.42.086.99-.47 1.65-1.564 1.75zm10.368-1.07l-3.66.32-4.88-12.82 3.157-.277 2.895 8.295c.146.44.327 1.28.357 1.62l.16-.01c-.028-.34.005-1.19.074-1.65l1.41-8.67 3.07-.26-2.58 13.48zm5.592-.49l-1.148-13.147 8.106-.71.225 2.566-5.022.44.24 2.67 4.7-.41.23 2.547-4.7.41.25 2.81 5.1-.45.4 2.53-8.36.73zm20.39-1.783c-.335.082-.834.162-1.12.187-1.31.115-1.94-.246-2.72-1.533l-1.842-3.074-1.327.116.43 4.88-2.99.26-1.15-13.146 4.86-.425c2.62-.23 4.47.693 4.72 3.51.16 1.775-.51 3.026-1.78 3.77l1.59 2.446c.23.36.33.43.72.39.16-.01.25-.04.39-.07l.24 2.69zm-5.857-10.35l-1.667.145.314 3.587 1.542-.135c1.076-.094 1.58-.753 1.465-2.062-.096-1.075-.577-1.63-1.654-1.536zm12.175-.867l.926 10.583-3.104.27-.926-10.582-2.977.26-.225-2.564 9.06-.792.224 2.565-2.978.26zm9.512 10.012c-1.148.1-2.105.11-4.363-.504l.492-2.62c2.72.6 3.18.59 3.98.52.89-.08 1.35-.59 1.28-1.45-.06-.68-.45-.95-1.19-1.14l-2.17-.55c-1.65-.41-2.94-1.38-3.11-3.34-.23-2.55 1.67-4.21 4.4-4.45.95-.08 1.89-.05 3.85.26l-.42 2.64c-2.09-.3-2.84-.35-3.54-.29-.84.08-1.37.48-1.29 1.4.05.61.45.85 1.21 1.05l2.16.57c1.66.44 2.9 1.38 3.08 3.39.24 2.74-1.72 4.31-4.41 4.54zm5.58-4.355l-.193-2.226 3.694-.323.2 2.23-3.69.33zm12.123 2.626l-3.66.32-4.88-12.82 3.156-.277 2.89 8.29c.14.44.33 1.27.36 1.61l.16-.02c-.03-.34 0-1.2.07-1.65l1.41-8.68 3.06-.27-2.58 13.47zm10.254-.898l-4.662.408-1.15-13.148 4.61-.403c3.406-.298 5.988 1.102 6.4 5.802.398 4.557-1.484 7.017-5.198 7.34zm-.967-10.65l-1.578.137.713 8.145 1.56-.137c1.937-.17 2.535-.98 2.23-4.48-.296-3.372-1.257-3.812-2.925-3.666zm9.75 10.045c-1.005.088-1.7-.43-1.79-1.452-.088-1 .527-1.61 1.532-1.7.968-.08 1.73.36 1.82 1.42.088.99-.47 1.65-1.563 1.75zm9.094-.778c-4.02.352-5.743-1.793-6.136-6.277-.435-4.97 1.474-6.924 4.846-7.22.97-.084 1.876-.037 3.757.377l-.41 2.747c-1.55-.442-2.25-.562-2.91-.504-1.59.14-2.34.71-2.03 4.28.33 3.75 1.17 4.09 2.79 3.95.68-.06 1.45-.362 3-1.238l.85 2.637c-1.74.91-2.75 1.162-3.74 1.248zm12.824-1.302l-.475-5.435-3.892.34.48 5.435-3.08.27-1.15-13.148 3.09-.27.45 5.112 3.89-.34-.44-5.112 3.09-.27 1.15 13.147-3.09.27z" fill="#FFF"/>
</svg>
