
<svg version="1.1" id="Layer_1" xmlns="http://www.w3.org/2000/svg" xmlns:xlink="http://www.w3.org/1999/xlink" x="0px" y="0px"
	 viewBox="-79 81 100 100" style="enable-background:new -79 81 100 100;" xml:space="preserve">
<style type="text/css">
	.st0{fill:#AEAEAE;}
</style>
<g>
	<circle class="st0" cx="-29.3" cy="131.9" r="20.6"/>
	<path class="st0" d="M-53.8,168.6c7.1,4.7,15.6,7.4,24.8,7.4c24.9,0,45-20.1,45-45S-4.1,86-29,86c-24.9,0-45,20.1-45,45
		c0,10.7,3.8,20.6,10.1,28.4l-5.7,15.8L-53.8,168.6L-53.8,168.6z M-61.6,131.9c0-17.8,14.4-32.3,32.3-32.3
		c17.8,0,32.3,14.4,32.3,32.3c0,17.8-14.4,32.3-32.3,32.3C-47.2,164.2-61.6,149.7-61.6,131.9z"/>
</g>
</svg>
